<?xml version="1.0" ?><!DOCTYPE svg  PUBLIC '-//W3C//DTD SVG 1.1//EN'  'http://www.w3.org/Graphics/SVG/1.1/DTD/svg11.dtd'><svg height="100%" style="fill-rule:evenodd;clip-rule:evenodd;stroke-linejoin:round;stroke-miterlimit:2;" version="1.1" viewBox="0 0 6000 6000" width="100%" xml:space="preserve" xmlns="http://www.w3.org/2000/svg" xmlns:serif="http://www.serif.com/" xmlns:xlink="http://www.w3.org/1999/xlink"><g transform="matrix(7.51266,0,0,7.51266,-7934.32,-4186.91)"><path d="M1441.54,821.489C1439.86,822.357 1438.33,823.529 1436.87,824.887C1434.23,827.36 1431.86,830.452 1429.4,833.339C1425.46,837.953 1421.3,842.078 1415.14,841.781C1414.75,836.207 1416.84,830.984 1419.41,825.843C1422.58,819.525 1426.5,813.328 1427.94,806.829C1429.36,800.444 1428.47,794.265 1427.22,788.096C1426,782.11 1424.44,776.133 1424.44,769.974C1424.44,762.542 1426.62,755.332 1429.21,748.204C1431.85,740.944 1434.91,733.769 1436.61,726.546C1437.33,723.49 1438.53,718.831 1438.14,714.841C1437.86,711.955 1436.75,709.414 1434.22,707.901C1431.66,706.371 1428.7,706.769 1425.82,708.151C1421.85,710.066 1418.03,713.868 1415.91,716.194C1404.76,728.402 1398.11,744.668 1400.51,761.317C1401.47,768.011 1404.59,773.841 1408.1,779.517C1411.52,785.045 1415.31,790.427 1417.71,796.375C1418.44,798.171 1419.56,802.067 1419.02,804.819C1418.88,805.581 1418.6,806.249 1418.1,806.698C1417.6,807.137 1416.89,807.338 1415.92,807.277C1411.99,807.026 1408.88,803.969 1406.41,800.004C1402.51,793.749 1400.27,785.176 1399.39,780.522C1396.1,763.059 1397.35,744.524 1405.86,728.695C1409.12,722.641 1413.58,717.297 1417.4,711.653C1421.31,705.861 1424.56,699.755 1425.27,692.317C1425.48,690.108 1425,688.816 1424.23,688.159C1423.42,687.462 1422.17,687.345 1420.61,687.835C1417.23,688.896 1412.02,692.835 1407.43,695.77C1405.68,696.892 1404.03,697.861 1402.62,698.43C1401.8,698.76 1401.09,698.959 1400.5,698.92C1398.32,698.776 1396.57,697.363 1395.23,695.512C1395.18,695.435 1395.12,695.358 1395.07,695.281L1395.08,695.244C1395.4,693.837 1396.44,689.32 1396.13,686.282C1395.97,684.652 1395.37,683.423 1394.37,682.923C1393.39,682.435 1392.6,682.481 1391.98,682.808C1391.18,683.237 1390.6,684.309 1390.47,685.844C1390.26,688.418 1391.19,692.427 1393.14,695.612C1390.2,707.483 1382.61,717.634 1377.99,728.855C1366.25,757.335 1377.01,785.868 1388.07,812.775C1390.67,819.108 1393.91,827.311 1398.73,833.635C1402.02,837.967 1406.05,841.42 1411.08,842.888C1411.91,843.133 1412.72,843.312 1413.5,843.43C1413.59,844.022 1413.7,844.617 1413.84,845.215C1415.73,853.354 1422.22,858.246 1428.62,863.299C1434.68,868.084 1440.67,873.027 1441.93,881.522C1443.17,889.783 1439.1,904.743 1438,917.545C1437.55,922.81 1437.59,927.719 1438.65,931.689C1439.39,934.457 1440.62,936.779 1442.47,938.493C1442.84,938.83 1443.41,938.807 1443.74,938.442C1444.08,938.077 1444.06,937.508 1443.69,937.171C1441.66,935.291 1440.53,932.552 1439.97,929.29C1439.39,925.879 1439.43,921.907 1439.79,917.698C1440.9,904.75 1444.96,889.612 1443.71,881.257C1442.37,872.264 1436.15,866.951 1429.73,861.886C1423.66,857.088 1417.39,852.535 1415.59,844.807C1415.5,844.403 1415.42,844.001 1415.35,843.6C1421.95,843.807 1426.51,839.493 1430.77,834.508C1433.18,831.673 1435.51,828.63 1438.1,826.202C1439.64,824.764 1441.28,823.542 1443.1,822.734C1444.26,823.445 1445.5,823.704 1446.63,823.223C1446.91,823.105 1447.26,822.831 1447.52,822.481C1447.79,822.137 1447.97,821.729 1448.01,821.399C1448.08,820.927 1447.92,820.539 1447.61,820.271C1447.39,820.08 1447.03,819.906 1446.45,819.971C1445.36,820.092 1444.33,820.341 1443.34,820.697C1442.08,819.659 1441.01,818.119 1440.54,817.234C1437.63,811.726 1438.56,804.161 1440.52,798.496C1444.28,787.662 1449.48,778.528 1453.31,769.501C1458.98,756.142 1461.68,743.016 1452.63,725.158C1456.35,729.926 1460.5,734.549 1464.26,739.302C1471.28,748.184 1476.94,757.524 1475.43,769.271C1474.46,776.774 1471.4,782.856 1467.88,788.719C1464.27,794.718 1460.19,800.492 1457.26,807.253C1456.36,809.345 1454.91,813.397 1455.23,816.481C1455.35,817.651 1455.72,818.692 1456.39,819.496C1457.09,820.319 1458.1,820.914 1459.56,821.111C1459.67,821.125 1459.78,821.138 1459.88,821.149C1457.81,823.617 1455.4,826.516 1453.42,829.475C1451.34,832.593 1449.75,835.788 1449.42,838.635C1446.23,866.496 1455.57,888.56 1458.18,915.718C1458.4,918.022 1458.55,920.326 1458.64,922.626C1451.13,936.334 1443.94,950.106 1438.94,965.388C1435.86,969.612 1432.85,973.717 1430.08,977.834C1417.62,996.327 1409.86,1015.05 1421.24,1045.6C1431.43,1072.96 1444.89,1092.71 1442.88,1121.75C1438.54,1127.46 1434.5,1133.36 1431.33,1139.83C1430.76,1140.98 1426.31,1150.07 1425.69,1155.53C1425.36,1158.49 1426.22,1160.45 1428.45,1160.58C1431.4,1160.75 1433.96,1158.64 1436.03,1155.3C1440.44,1148.19 1442.78,1135.49 1443.44,1131.78C1444.02,1128.53 1444.41,1125.4 1444.64,1122.36C1449.38,1116.13 1454.48,1110.13 1459.2,1103.85C1460.76,1109.39 1461.77,1115.05 1461.65,1120.92C1461.24,1142.66 1449.68,1160.73 1441.76,1179.43C1433.7,1198.47 1429.34,1218.15 1443.59,1242.82C1443.84,1243.25 1444.39,1243.4 1444.82,1243.15C1445.25,1242.9 1445.4,1242.35 1445.15,1241.92C1431.26,1217.87 1435.56,1198.69 1443.42,1180.13C1451.42,1161.23 1463.03,1142.93 1463.45,1120.95C1463.58,1114.44 1462.36,1108.18 1460.53,1102.05C1463.45,1098.07 1466.18,1093.97 1468.56,1089.62C1480.42,1067.88 1483.99,1044.94 1486.6,1021.82C1488.33,1006.46 1489.63,991.029 1492.71,975.826C1500.12,966.738 1507.48,957.458 1512.38,946.004C1517.3,934.5 1519.54,922.327 1521.96,910.183C1524.87,905.457 1527.74,900.716 1530.44,895.885C1531.68,893.652 1536.42,885.749 1537.69,879.932C1538.32,877.086 1538.06,874.701 1536.6,873.424C1535.8,872.724 1534.99,872.493 1534.2,872.578C1533.16,872.69 1532.09,873.426 1531.13,874.643C1527.99,878.577 1525.48,887.748 1525.11,888.985C1523.08,895.725 1521.65,902.604 1520.28,909.492C1511.66,923.5 1502.73,937.357 1497.14,952.892C1494.51,960.194 1492.56,967.586 1491.04,975.033C1489.24,977.239 1487.44,979.434 1485.67,981.648C1478.77,990.291 1472.38,999.227 1468.53,1010.12C1467.5,1000.71 1467.21,991.412 1469.04,981.999L1469.17,981.842C1475.65,974.278 1482.66,966.982 1486.43,957.461C1489.61,949.448 1490.97,941.048 1491.81,932.525C1498.12,921.879 1504.34,911.19 1508.76,899.547C1510.03,896.196 1513.98,886.481 1513.98,879.596C1513.98,876.326 1513.07,873.674 1510.87,872.354C1508.44,870.897 1506.07,871.743 1503.95,873.917C1499.68,878.292 1496.41,888.323 1495.65,890.718C1492.19,901.523 1491.53,912.879 1490.7,924.176C1490.5,926.801 1490.3,929.422 1490.05,932.032C1481.97,945.665 1473.76,959.226 1469.02,974.614C1468.35,976.813 1467.8,979.003 1467.36,981.186C1463.99,985.14 1460.8,989.188 1458.31,993.68C1458.24,989.049 1458.15,984.536 1458.09,980.598C1457.89,965.109 1459.99,949.643 1460.46,934.177C1463.14,927.521 1464.58,920.426 1465.84,913.25C1469.47,906.641 1473.06,899.968 1476.41,893.066C1477.21,891.416 1483.21,881.365 1485.66,874.589C1486.34,872.738 1486.74,871.113 1486.76,869.933C1486.77,868.859 1486.45,868.082 1485.91,867.628C1485.37,867.18 1484.68,867.068 1483.86,867.349C1483.07,867.621 1482.09,868.335 1481.04,869.353C1477.38,872.935 1472.69,880.338 1472.11,881.565C1467.82,890.626 1466.2,900.538 1464.51,910.384C1464.38,911.146 1464.25,911.908 1464.12,912.668C1462.84,914.992 1461.57,917.308 1460.29,919.622C1460.21,918.265 1460.1,916.905 1459.97,915.546C1457.37,888.519 1448.03,866.566 1451.21,838.84C1451.51,836.233 1453.02,833.329 1454.92,830.473C1457.17,827.104 1459.99,823.815 1462.23,821.163C1465.49,820.861 1468.62,819.246 1471.47,816.942C1476.67,812.733 1480.96,806.232 1483.54,801.845C1486.47,796.866 1488.81,791.371 1490.39,785.816C1491.08,783.406 1491.56,781.115 1491.87,778.925C1492.12,778.309 1492.37,777.687 1492.62,777.06C1496.63,766.623 1497.74,758.315 1496.75,751.249C1495.59,742.964 1491.54,736.365 1485.79,730.047C1480.14,723.85 1472.85,717.917 1465.08,710.854C1464.51,710.329 1462.9,708.463 1460.89,705.862C1460.03,699.083 1458.89,690.185 1457.14,684.146C1456.37,681.47 1455.45,679.335 1454.42,678.105C1453.54,677.049 1452.54,676.59 1451.49,676.732C1449.57,676.99 1448.31,677.767 1447.55,678.87C1446.47,680.433 1446.39,682.766 1447.12,685.519C1448.82,691.921 1454.8,700.804 1459.19,706.563C1459.72,710.731 1460.15,714.072 1460.55,715.412C1464.61,729.063 1474.03,738.52 1481.28,748.696C1487.28,757.114 1491.74,766.048 1490.11,778.466C1483.86,793.219 1472.66,805.303 1462.77,817.689C1462.34,818.219 1461.86,818.796 1461.35,819.413C1460.83,819.424 1460.32,819.397 1459.8,819.327C1458.87,819.202 1458.21,818.861 1457.77,818.339C1457.32,817.798 1457.11,817.085 1457.02,816.297C1456.74,813.508 1458.1,809.858 1458.92,807.967C1461.81,801.281 1465.85,795.578 1469.42,789.646C1473.07,783.576 1476.21,777.269 1477.21,769.501C1478.79,757.242 1473,747.454 1465.67,738.185C1458.55,729.173 1449.96,720.657 1445.72,710.675C1442.15,702.264 1441.05,692.27 1440.31,684.414C1439.81,679.028 1439.46,674.62 1438.66,672.319C1438.26,671.165 1437.69,670.464 1437.07,670.183C1436.55,669.946 1435.95,669.933 1435.26,670.261C1426.97,674.217 1426.89,682.38 1430.33,691.409C1435.21,704.241 1447.2,718.836 1450.11,724.227C1459.93,742.37 1457.31,755.465 1451.65,768.798C1447.81,777.86 1442.59,787.031 1438.82,797.907C1436.71,804.004 1435.82,812.146 1438.95,818.075C1439.4,818.942 1440.37,820.345 1441.54,821.489ZM1442.58,1125.11C1438.97,1130.03 1435.64,1135.12 1432.94,1140.63C1432.4,1141.73 1428.07,1150.47 1427.48,1155.73C1427.39,1156.53 1427.39,1157.24 1427.53,1157.81C1427.66,1158.37 1427.96,1158.74 1428.56,1158.78C1430.92,1158.91 1432.84,1157.03 1434.5,1154.36C1438.79,1147.43 1441.03,1135.07 1441.67,1131.47C1442.05,1129.3 1442.36,1127.18 1442.58,1125.11ZM1437.32,970.669C1435.33,973.413 1433.4,976.124 1431.57,978.84C1419.41,996.887 1411.82,1015.16 1422.93,1044.97C1432.9,1071.76 1445.88,1091.35 1444.81,1119.24C1449.37,1113.39 1454.16,1107.69 1458.57,1101.71C1456.19,1093.94 1452.87,1086.38 1450.23,1078.74C1438.79,1045.76 1427.41,1005.5 1437.24,970.952L1437.32,970.669ZM1458.5,938.5C1458.39,938.711 1458.29,938.92 1458.17,939.128C1452.84,949.257 1446.57,957.961 1440.56,966.206C1440,967.931 1439.47,969.677 1438.97,971.444C1429.24,1005.65 1440.6,1045.5 1451.93,1078.15C1454.44,1085.39 1457.53,1092.58 1459.87,1099.92C1462.44,1096.34 1464.85,1092.65 1466.98,1088.76C1478.72,1067.23 1482.23,1044.51 1484.81,1021.62C1486.42,1007.32 1487.67,992.953 1490.31,978.767C1489.23,980.1 1488.14,981.432 1487.08,982.771C1479.54,992.215 1472.6,1002 1469.05,1014.42C1469.49,1017.83 1470,1021.26 1470.52,1024.71C1470.68,1025.77 1473.59,1038.89 1473.18,1046C1473.08,1047.68 1472.79,1049.05 1472.29,1049.92C1471.95,1050.5 1471.52,1050.9 1471.02,1051.11C1470.51,1051.33 1469.9,1051.38 1469.19,1051.15C1468.27,1050.86 1467.49,1050.23 1466.85,1049.29C1466.03,1048.09 1465.45,1046.34 1465.08,1044.28C1463.73,1036.74 1465.11,1024.82 1465.62,1021.63C1466.02,1019.08 1466.56,1016.63 1467.22,1014.27C1465.95,1004.35 1465.3,994.584 1466.75,984.722C1463.48,988.709 1460.5,992.861 1458.37,997.556C1458.49,1008.04 1458.42,1018.46 1457.4,1023.6C1457.14,1024.94 1456.8,1025.95 1456.4,1026.57C1455.99,1027.23 1455.47,1027.54 1454.95,1027.59C1454.41,1027.64 1453.95,1027.46 1453.56,1027.03C1453.22,1026.65 1452.93,1025.99 1452.76,1025.1C1451.84,1020.43 1453.52,1008.22 1453.71,1006.92C1454.24,1003.4 1455.24,1000.18 1456.57,997.178C1456.49,991.362 1456.36,985.541 1456.29,980.622C1456.11,966.568 1457.83,952.532 1458.5,938.5ZM1467.89,1019.18C1467.7,1020.08 1467.54,1020.99 1467.39,1021.91C1466.9,1025.01 1465.53,1036.62 1466.85,1043.96C1467.12,1045.45 1467.5,1046.76 1468.03,1047.76C1468.47,1048.6 1469.01,1049.21 1469.73,1049.44C1469.96,1049.51 1470.15,1049.53 1470.31,1049.46C1470.48,1049.38 1470.61,1049.22 1470.72,1049.02C1471.12,1048.33 1471.3,1047.23 1471.38,1045.89C1471.78,1038.91 1468.9,1026.02 1468.74,1024.98C1468.45,1023.04 1468.16,1021.11 1467.89,1019.18ZM1456.61,1002.2C1456.13,1003.79 1455.76,1005.45 1455.5,1007.18C1455.33,1008.3 1454.04,1017.51 1454.31,1022.84C1454.37,1023.9 1454.48,1024.79 1454.69,1025.4C1454.72,1025.5 1454.78,1025.61 1454.83,1025.69L1454.84,1025.67C1454.95,1025.52 1455.04,1025.33 1455.14,1025.09C1455.58,1023.97 1455.89,1022.12 1456.12,1019.76C1456.55,1015.23 1456.65,1008.89 1456.61,1002.2ZM1489.59,936.259C1482.24,948.662 1475.05,961.145 1470.74,975.143C1470.42,976.195 1470.13,977.244 1469.86,978.293C1475.6,971.703 1481.46,965.13 1484.76,956.799C1487.39,950.171 1488.74,943.272 1489.59,936.259ZM1519.28,914.519C1511.53,927.045 1503.84,939.596 1498.83,953.502C1496.64,959.6 1494.92,965.762 1493.53,971.966C1500.08,963.861 1506.38,955.446 1510.72,945.296C1514.96,935.387 1517.2,924.978 1519.28,914.519ZM1458.74,926.182C1452.75,937.201 1447.04,948.33 1442.61,960.322C1447.46,953.562 1452.32,946.384 1456.58,938.29C1457.36,936.814 1458.05,935.309 1458.68,933.781C1458.75,931.248 1458.78,928.715 1458.74,926.182ZM1462.39,919.525C1461.95,920.313 1461.52,921.101 1461.09,921.889L1460.46,923.035C1460.52,924.87 1460.55,926.706 1460.55,928.542C1461.59,925.187 1462.39,921.746 1463.08,918.263L1462.39,919.525ZM1492.17,928.435C1497.77,918.92 1503.14,909.293 1507.08,898.909C1508.14,896.115 1511.13,888.782 1511.97,882.526C1512.23,880.528 1512.28,878.646 1511.94,877.078C1511.64,875.686 1511.04,874.554 1509.94,873.898C1508.89,873.263 1507.85,873.342 1506.87,873.879C1505.71,874.516 1504.62,875.724 1503.61,877.192C1500.36,881.909 1498,889.292 1497.36,891.267C1493.95,901.936 1493.32,913.153 1492.49,924.309C1492.39,925.685 1492.29,927.06 1492.17,928.435ZM1466.79,907.768C1469.54,902.688 1472.23,897.55 1474.79,892.28C1475.58,890.646 1481.54,880.69 1483.97,873.975C1484.56,872.357 1484.94,870.943 1484.95,869.911C1484.96,869.508 1484.96,869.181 1484.75,869.01C1484.71,868.976 1484.66,868.998 1484.6,869.01C1484.44,869.04 1484.27,869.113 1484.09,869.211C1483.14,869.729 1481.98,870.887 1480.77,872.287C1477.6,875.965 1474.22,881.325 1473.74,882.335C1469.94,890.352 1468.29,899.051 1466.79,907.768ZM1523.01,905.028C1525.02,901.714 1526.98,898.383 1528.87,895.008C1530.07,892.842 1534.7,885.189 1535.94,879.546C1536.18,878.428 1536.29,877.396 1536.19,876.517C1536.11,875.797 1535.88,875.19 1535.41,874.778C1534.4,873.895 1533.46,874.602 1532.53,875.764C1529.54,879.526 1527.19,888.32 1526.83,889.503C1525.3,894.617 1524.1,899.811 1523.01,905.028ZM1413.32,841.573C1413.02,835.801 1415.13,830.37 1417.81,825.036C1420.91,818.852 1424.78,812.801 1426.18,806.44C1427.54,800.309 1426.66,794.378 1425.46,788.455C1424.22,782.35 1422.64,776.254 1422.64,769.974C1422.64,762.334 1424.86,754.916 1427.52,747.59C1430.13,740.396 1433.17,733.29 1434.86,726.133C1435.54,723.23 1436.72,718.808 1436.35,715.018C1436.12,712.718 1435.31,710.652 1433.3,709.447C1431.25,708.226 1428.9,708.671 1426.61,709.773C1422.84,711.586 1419.25,715.207 1417.24,717.408C1406.44,729.222 1399.97,744.948 1402.29,761.06C1403.22,767.505 1406.25,773.105 1409.63,778.571C1413.1,784.185 1416.94,789.658 1419.38,795.699C1420.2,797.71 1421.39,802.081 1420.79,805.161C1420.56,806.343 1420.08,807.348 1419.29,808.045C1418.49,808.754 1417.37,809.173 1415.81,809.073C1411.34,808.788 1407.69,805.463 1404.88,800.955C1400.86,794.5 1398.53,785.658 1397.62,780.855C1394.26,762.991 1395.57,744.035 1404.28,727.842C1407.56,721.735 1412.06,716.339 1415.91,710.645C1419.66,705.099 1422.79,699.267 1423.48,692.146C1423.55,691.323 1423.53,690.676 1423.41,690.181C1423.32,689.859 1423.2,689.621 1423,689.483C1422.65,689.238 1422.15,689.293 1421.56,689.438C1420.72,689.642 1419.74,690.083 1418.66,690.665C1414.61,692.85 1409.34,696.971 1405.26,699.162C1403.33,700.2 1401.62,700.798 1400.38,700.716C1398.05,700.562 1396.07,699.306 1394.51,697.493C1391.31,708.833 1384.12,718.698 1379.65,729.541C1368.1,757.563 1378.85,785.617 1389.73,812.09C1392.28,818.298 1395.44,826.347 1400.16,832.545C1403.21,836.561 1406.92,839.799 1411.58,841.16C1412.18,841.335 1412.76,841.472 1413.32,841.573ZM1488.49,785.92C1481.98,797.869 1472.62,808.24 1464.17,818.812L1464.01,819.016C1466.23,818.408 1468.35,817.147 1470.34,815.542C1475.37,811.473 1479.5,805.174 1481.99,800.933C1484.74,796.262 1486.95,791.126 1488.49,785.92ZM1461.33,709.291C1461.68,711.911 1461.98,713.929 1462.27,714.897C1466.28,728.345 1475.61,737.628 1482.75,747.651C1488,755.024 1492.1,762.78 1492.25,772.751C1495.06,764.364 1495.81,757.474 1494.97,751.499C1493.86,743.583 1489.96,737.296 1484.46,731.259C1478.85,725.099 1471.59,719.206 1463.87,712.186C1463.46,711.812 1462.54,710.778 1461.33,709.291ZM1444.93,713.277C1444.62,712.65 1444.34,712.017 1444.07,711.378C1438.78,698.912 1438.77,683.035 1437.54,675.451C1437.3,673.979 1437.03,672.847 1436.63,672.169C1436.53,672.005 1436.45,671.868 1436.32,671.819C1436.24,671.787 1436.15,671.833 1436.04,671.885C1428.67,675.403 1428.95,682.741 1432.01,690.769C1434.93,698.43 1440.4,706.718 1444.93,713.277ZM1458.73,702.967C1457.92,696.807 1456.88,689.719 1455.41,684.648C1454.73,682.27 1453.96,680.352 1453.05,679.26C1452.63,678.768 1452.22,678.45 1451.73,678.516C1450.43,678.691 1449.55,679.149 1449.03,679.895C1448.19,681.107 1448.29,682.924 1448.86,685.058C1450.28,690.403 1454.79,697.533 1458.73,702.967ZM1393.75,692.917C1394.05,691.422 1394.37,689.443 1394.39,687.697C1394.4,686.865 1394.34,686.09 1394.16,685.466C1394.04,685.043 1393.88,684.69 1393.57,684.533C1393.26,684.38 1393.02,684.295 1392.83,684.397C1392.69,684.472 1392.6,684.626 1392.52,684.81C1392.38,685.128 1392.3,685.531 1392.26,685.993C1392.11,687.829 1392.63,690.479 1393.75,692.917Z"/></g></svg>