<?xml version="1.0" ?><!DOCTYPE svg  PUBLIC '-//W3C//DTD SVG 1.1//EN'  'http://www.w3.org/Graphics/SVG/1.1/DTD/svg11.dtd'><svg height="100%" style="fill-rule:evenodd;clip-rule:evenodd;stroke-linejoin:round;stroke-miterlimit:2;" version="1.1" viewBox="0 0 6000 6000" width="100%" xml:space="preserve" xmlns="http://www.w3.org/2000/svg" xmlns:serif="http://www.serif.com/" xmlns:xlink="http://www.w3.org/1999/xlink"><g transform="matrix(8.31122,0,0,8.31122,-8728.08,-4711.08)"><path d="M1438.05,659.25C1436.18,662.569 1435.07,666.187 1435.02,669.869C1435,671.476 1436.63,677.065 1439.01,680.109C1440.1,681.5 1441.37,682.353 1442.65,682.341C1443.55,682.332 1444.5,681.927 1445.44,680.894C1446.33,679.919 1446.33,678.301 1445.66,676.42C1444.39,672.843 1440.81,668.122 1440.2,666.29C1439.51,664.236 1439.47,662.021 1439.62,659.762C1441.69,656.208 1444.69,653.026 1448.18,650.535C1454.77,645.835 1463.1,643.577 1470.24,646.017C1477.03,648.339 1480.79,656.754 1477.85,663.375C1477.52,664.13 1476.9,665.125 1476.26,666.231C1474.39,666.207 1472.42,667.141 1470.72,668.203C1465.08,671.723 1460.55,676.596 1455.08,680.33C1451.97,682.454 1448.54,683.445 1445.04,684.27C1441.39,685.128 1437.68,685.808 1434.14,687.284C1426.65,690.408 1419.51,697.916 1416.07,706.368C1413.75,712.059 1413.11,718.171 1415.09,723.665C1418.79,733.894 1429.81,737.554 1439.74,738.342C1451.66,739.288 1462.27,736.631 1471.25,731.022C1467.82,736.641 1463.43,741.149 1457.71,743.9C1451.76,746.761 1444.39,747.699 1435.23,746.024C1430.48,745.156 1425.78,743.37 1421.72,740.761C1414.97,736.431 1410.97,729.545 1409.81,722.171L1409.68,720.985C1409.65,720.7 1409.62,720.414 1409.58,720.129L1409.52,719.531C1409.04,712.316 1411.23,704.876 1416.14,699.085C1418.42,696.396 1421.6,694.271 1424.61,692.015C1427.77,689.645 1430.75,687.129 1432.45,683.786C1434.73,679.299 1434.65,669.923 1432.26,662.55C1430.62,657.49 1427.86,653.408 1424.2,652.283C1420.89,651.264 1418.08,652.889 1415.84,655.651C1412.74,659.463 1410.73,665.452 1409.81,668.445C1404.92,684.475 1406.08,702.974 1407.93,719.963C1407.98,720.672 1408.06,721.378 1408.16,722.08C1408.26,722.916 1408.35,723.745 1408.45,724.569C1409.98,737.783 1417.12,748.841 1423.77,760.941C1424.55,762.361 1425.32,763.797 1426.08,765.253C1422.06,768.027 1419.34,771.841 1419.7,777.913C1419.96,782.248 1420.9,786.365 1422.18,790.442C1419.18,809.64 1421.24,828.597 1422.87,847.527C1422.5,849.709 1422.1,853.105 1422.47,855.848C1422.67,857.277 1423.09,858.524 1423.79,859.42C1424.77,874.785 1424.69,890.164 1420.54,905.668C1419.01,911.38 1409.28,933.387 1407.12,948.032C1407,948.9 1406.89,949.744 1406.82,950.558C1404.68,954.564 1402.84,958.683 1401.54,963.017C1401.03,964.727 1400.61,967.913 1400.43,971.741C1398.32,969.96 1396.15,968.244 1393.97,966.512C1388.2,961.91 1382.43,957.194 1378.07,950.752C1375.76,947.341 1366.87,933.453 1361.92,930.077C1360.22,928.91 1358.84,928.938 1358.03,930.045C1355.83,933.087 1355.62,937.509 1355.49,942.132C1355.36,946.441 1355.27,950.933 1353.25,954.471C1348.56,962.692 1339.68,968.776 1332.13,975.524C1324.34,982.497 1317.96,990.167 1318.55,1001.33C1318.97,1009.47 1325.57,1014.67 1330.87,1018.96C1332.55,1020.32 1334.09,1021.58 1335.2,1022.84C1336.2,1023.95 1336.87,1025.03 1336.9,1026.19C1337.1,1034.82 1334.36,1041.3 1331.99,1047.79C1328.32,1057.83 1325.44,1067.86 1334.7,1085.33C1338.98,1093.42 1345.26,1098.71 1351.93,1103.57C1358.46,1108.33 1365.37,1112.66 1371.07,1118.94C1373.1,1121.18 1374.79,1125.44 1376.36,1130.42C1378.8,1138.1 1380.93,1147.47 1383.39,1154.05C1384.48,1156.97 1385.65,1159.36 1386.92,1160.86C1387.9,1162.01 1388.96,1162.66 1390.07,1162.77C1394.26,1163.19 1397.28,1160.38 1399.27,1156.32C1402.07,1150.58 1402.81,1142.34 1402.29,1138.43C1401.77,1134.55 1400.75,1130.8 1399.38,1127.14L1399.74,1126.79C1403.45,1123.12 1407.19,1119.46 1409.5,1114.65C1414.44,1104.34 1412.43,1094.78 1409.46,1085.24C1406.58,1076 1402.77,1066.79 1404.01,1056.86C1404.72,1051.17 1407.07,1046.12 1409.49,1041.11C1411.98,1035.96 1414.54,1030.85 1415.57,1025.16C1415.84,1023.72 1416.55,1019.46 1416.02,1016.69C1415.74,1015.21 1415.07,1014.13 1414.05,1013.75C1411.8,1012.92 1409.78,1014.29 1408.17,1016.95C1404.93,1022.27 1403.14,1032.84 1402.69,1035C1398.65,1054.37 1400.71,1073.39 1399.65,1092.89C1399.52,1095.16 1399.07,1100.49 1397.48,1104.49C1396.53,1106.89 1395.22,1108.85 1393.16,1109.02C1392.68,1109.06 1392.32,1108.98 1392.05,1108.76C1391.6,1108.39 1391.45,1107.69 1391.41,1106.86C1391.23,1102.64 1394.41,1095.16 1394.89,1093.84C1397.83,1085.77 1394.95,1076.92 1391.87,1069.35C1387.53,1058.7 1380.28,1049.99 1373.92,1040.65C1374.52,1038.82 1375.11,1036.93 1375.67,1034.97C1376.34,1032.66 1376.81,1029.64 1376.4,1026.99C1375.96,1024.14 1374.53,1021.72 1371.42,1020.85C1369.26,1020.24 1367.79,1020.57 1366.83,1021.35C1365.87,1022.13 1365.38,1023.43 1365.29,1024.96C1365.13,1027.67 1366.2,1031.13 1367.28,1033.08C1368.78,1035.77 1370.42,1038.37 1372.14,1040.91C1368.17,1053.25 1364.45,1063.22 1369.74,1077.31C1373.67,1087.79 1380.68,1097.56 1387.1,1107.55C1391.1,1113.78 1394.88,1120.1 1397.49,1126.74C1395.89,1128.33 1394.33,1129.95 1392.93,1131.7C1392.17,1130.17 1391.48,1128.99 1391.1,1128.45C1384.44,1119.11 1375.9,1112.07 1367.76,1104.64C1359.73,1097.32 1352.09,1089.61 1347.11,1078.82C1334.22,1050.94 1346.24,1025.23 1359.85,1000.1C1362.31,995.566 1365.19,989.569 1369.07,984.954C1372.8,980.517 1377.44,977.357 1383.58,978.297C1389.98,979.279 1395.94,982.833 1401.29,987.91C1401.65,989.916 1402.11,991.817 1402.69,993.515C1404.22,997.925 1406.65,1000.96 1410.08,1001.3C1410.85,1001.37 1411.5,1001.3 1412.05,1001.11C1421.39,1015.44 1427.53,1033.23 1428.9,1044.9C1432.41,1074.76 1423.52,1102.56 1414.44,1130.32C1405.29,1158.31 1395.94,1186.27 1398.62,1216.23C1398.66,1216.67 1399.06,1217 1399.5,1216.96C1399.95,1216.92 1400.28,1216.53 1400.24,1216.08C1397.58,1186.35 1406.9,1158.61 1415.99,1130.83C1425.14,1102.84 1434.06,1074.81 1430.52,1044.71C1429.12,1032.86 1422.9,1014.78 1413.41,1000.22C1414.04,999.555 1414.42,998.609 1414.57,997.463C1414.84,995.478 1414.42,992.847 1413.73,990.294C1412.69,986.511 1411.05,982.904 1410.27,981.857C1407.84,978.581 1405.01,975.74 1401.98,973.082C1402.12,968.869 1402.56,965.306 1403.1,963.482C1404.05,960.323 1405.28,957.279 1406.72,954.309C1406.78,955.608 1406.95,956.781 1407.25,957.799C1407.79,959.617 1408.75,960.967 1410.16,961.748C1413.81,963.764 1417.85,962.609 1421.63,960.006C1426.97,956.331 1431.8,949.795 1434.13,946.45C1443.43,933.161 1443.78,920.413 1442.03,907.453C1440.71,897.731 1438.19,887.891 1437.49,877.606C1438.59,871.065 1439.64,864.487 1440.94,857.89C1442.09,856.125 1443.43,854.477 1444.88,852.889C1448.9,848.5 1453.7,844.573 1457.28,840.051C1458.36,838.682 1460.49,835.286 1460.79,832.617C1460.91,831.567 1460.76,830.616 1460.27,829.873C1459.77,829.118 1458.92,828.539 1457.54,828.34C1453.13,827.701 1449.47,831.042 1446.66,835.875C1442.7,842.716 1440.38,852.459 1439.58,856.405L1439.41,857.281C1437.45,860.383 1436.1,863.828 1435.83,867.861C1435.61,871.134 1435.65,874.356 1435.86,877.534C1433.58,891.151 1431.07,904.599 1425.64,917.714C1421.42,927.902 1414.6,937.058 1408.99,946.681C1411.57,932.142 1420.64,911.574 1422.11,906.088C1426.18,890.865 1426.39,875.762 1425.49,860.674C1425.73,860.757 1425.99,860.816 1426.25,860.851C1428.76,861.175 1430.69,859.748 1432.11,857.356C1435.05,852.397 1435.76,843.129 1435.95,840.055C1436.44,832.343 1435.61,825.596 1434.13,819.446C1435.89,814.225 1437.2,808.824 1437.4,802.922C1437.83,789.584 1434.37,778.742 1429.74,768.965C1430.47,767.192 1431.28,765.452 1432.16,763.788C1437.15,761.546 1442.74,759.891 1446.59,757.253C1448.15,756.184 1449.23,754.281 1449.49,752.6C1449.68,751.31 1449.39,750.153 1448.62,749.454C1447.84,748.74 1446.48,748.411 1444.39,749.163C1438.81,751.166 1434.4,756.247 1431.03,762.445L1430.98,762.539C1430.43,762.792 1429.88,763.054 1429.35,763.326C1428.7,763.658 1428.07,764.005 1427.45,764.371C1426.71,762.95 1425.96,761.547 1425.2,760.158C1420.08,750.843 1414.63,742.17 1411.78,732.612C1413.93,736.35 1416.95,739.639 1420.84,742.13C1425.08,744.853 1429.98,746.719 1434.93,747.624C1444.51,749.374 1452.2,748.355 1458.41,745.366C1465.33,742.039 1470.41,736.242 1474.2,729.027C1480.61,724.367 1486.1,718.112 1490.54,710.53C1496.82,699.8 1502.11,686.784 1503.39,674.341C1503.59,672.438 1504.08,668.082 1503.27,664.891C1502.66,662.434 1501.29,660.654 1498.79,660.632C1495.99,660.607 1493.6,662.161 1491.42,664.304C1488.43,667.233 1485.85,671.291 1482.92,673.109L1482.82,673.17C1482.15,671.261 1481.25,669.545 1480.06,668.118C1479.4,667.337 1478.69,666.833 1477.94,666.544C1478.51,665.577 1479.04,664.709 1479.34,664.035C1482.65,656.576 1478.41,647.093 1470.76,644.477C1463.16,641.877 1454.26,644.201 1447.24,649.211C1444.44,651.209 1441.94,653.63 1439.95,656.327C1440.02,655.625 1440.1,654.924 1440.15,654.228C1440.5,649.782 1440.23,645.536 1436.61,642.212C1432.38,638.328 1425.17,637.749 1420.22,639.714C1417.62,640.744 1415.65,642.468 1414.93,644.709C1414.22,646.934 1414.71,649.728 1417.22,652.943C1417.5,653.296 1418.01,653.359 1418.36,653.082C1418.72,652.805 1418.78,652.294 1418.5,651.94C1416.43,649.295 1415.9,647.036 1416.48,645.206C1417.07,643.392 1418.72,642.06 1420.82,641.227C1425.25,639.466 1431.72,639.931 1435.51,643.41C1438.72,646.357 1438.84,650.157 1438.53,654.1C1438.39,655.804 1438.18,657.535 1438.05,659.25ZM1400.36,973.816C1397.96,971.743 1395.46,969.776 1392.96,967.784C1387.06,963.082 1381.18,958.247 1376.72,951.664C1374.74,948.734 1367.83,937.907 1362.89,933.027C1361.9,932.058 1361.02,931.329 1360.26,930.992C1359.88,930.818 1359.55,930.718 1359.35,931C1357.31,933.808 1357.24,937.913 1357.11,942.18C1356.98,946.759 1356.81,951.519 1354.66,955.278C1349.89,963.642 1340.89,969.871 1333.22,976.736C1325.8,983.375 1319.61,990.617 1320.17,1001.24C1320.57,1008.89 1326.91,1013.67 1331.9,1017.7C1334.01,1019.41 1335.9,1020.99 1337.1,1022.57C1337.98,1023.75 1338.5,1024.93 1338.53,1026.15C1338.73,1035.02 1335.96,1041.68 1333.52,1048.35C1329.98,1058.03 1327.21,1067.71 1336.14,1084.57C1340.3,1092.42 1346.41,1097.54 1352.89,1102.26C1359.51,1107.08 1366.5,1111.49 1372.27,1117.84C1374.41,1120.21 1376.25,1124.68 1377.91,1129.93C1380.34,1137.59 1382.46,1146.92 1384.91,1153.48C1385.92,1156.19 1386.98,1158.41 1388.16,1159.8C1388.82,1160.58 1389.49,1161.08 1390.23,1161.15C1393.73,1161.51 1396.15,1159 1397.81,1155.61C1400.47,1150.16 1401.17,1142.36 1400.67,1138.65C1400.2,1135.13 1399.31,1131.73 1398.12,1128.41C1396.56,1129.98 1395.05,1131.59 1393.72,1133.33C1395.23,1136.64 1396.76,1140.86 1396.7,1143.94C1396.67,1145.49 1396.25,1146.77 1395.37,1147.62C1394.76,1148.21 1393.92,1148.61 1392.8,1148.73C1390.75,1148.94 1389.49,1147.57 1388.89,1145.55C1388.13,1142.95 1388.5,1139.31 1389.1,1137.91C1389.85,1136.19 1390.78,1134.61 1391.84,1133.13C1390.99,1131.36 1390.19,1129.98 1389.77,1129.39C1383.18,1120.15 1374.72,1113.2 1366.66,1105.84C1358.48,1098.38 1350.71,1090.5 1345.63,1079.51C1332.51,1051.12 1344.56,1024.91 1358.42,999.325C1360.92,994.707 1363.88,988.608 1367.82,983.907C1371.92,979.028 1377.08,975.655 1383.82,976.689C1389.94,977.626 1395.68,980.791 1400.91,985.373C1400.42,981.531 1400.28,977.47 1400.36,973.816ZM1392.63,1134.85C1391.86,1136.01 1391.17,1137.24 1390.6,1138.56C1390.08,1139.75 1389.8,1142.87 1390.45,1145.09C1390.81,1146.28 1391.42,1147.24 1392.63,1147.11C1395.16,1146.85 1395.36,1144.48 1394.88,1141.73C1394.49,1139.51 1393.59,1137.02 1392.63,1134.85ZM1398.74,1125.49C1402.27,1122 1405.84,1118.53 1408.03,1113.95C1412.78,1104.05 1410.76,1094.88 1407.9,1085.72C1404.95,1076.27 1401.13,1066.82 1402.39,1056.66C1403.12,1050.79 1405.53,1045.57 1408.03,1040.4C1410.45,1035.38 1412.97,1030.41 1413.97,1024.87C1414.18,1023.71 1414.72,1020.61 1414.56,1018.12C1414.51,1017.36 1414.4,1016.65 1414.17,1016.1C1414.01,1015.72 1413.81,1015.4 1413.48,1015.28C1412.63,1014.97 1411.86,1015.22 1411.15,1015.81C1410.58,1016.29 1410.05,1016.97 1409.56,1017.79C1406.42,1022.96 1404.72,1033.23 1404.28,1035.34C1400.26,1054.62 1402.33,1073.56 1401.27,1092.98C1401.14,1095.35 1400.65,1100.91 1398.99,1105.09C1397.78,1108.15 1395.9,1110.43 1393.29,1110.64C1392.3,1110.72 1391.56,1110.47 1391.02,1110.02C1390.26,1109.39 1389.85,1108.31 1389.79,1106.93C1389.59,1102.52 1392.86,1094.66 1393.36,1093.28C1396.16,1085.6 1393.3,1077.18 1390.36,1069.96C1386.23,1059.81 1379.42,1051.44 1373.29,1042.59C1369.56,1054.01 1366.3,1063.51 1371.26,1076.73C1375.15,1087.12 1382.11,1096.78 1388.47,1106.67C1392.4,1112.79 1396.1,1118.99 1398.74,1125.49ZM1372.77,1038.94C1373.22,1037.5 1373.67,1036.04 1374.11,1034.52C1374.71,1032.41 1375.16,1029.65 1374.79,1027.24C1374.45,1025.02 1373.4,1023.09 1370.98,1022.41C1369.57,1022.01 1368.58,1022.07 1367.93,1022.55C1367.47,1022.89 1367.21,1023.42 1367.06,1024.04C1366.88,1024.78 1366.87,1025.64 1366.95,1026.53C1367.16,1028.63 1367.93,1030.89 1368.7,1032.29C1369.97,1034.57 1371.34,1036.77 1372.77,1038.94ZM1403.37,989.985C1403.62,991.038 1403.91,992.042 1404.23,992.982C1405.51,996.679 1407.37,999.394 1410.24,999.676C1410.55,999.707 1410.84,999.705 1411.09,999.669C1410.51,998.814 1409.92,997.971 1409.31,997.144C1407.44,994.58 1405.45,992.172 1403.37,989.985ZM1401.94,975.223C1401.92,979.065 1402.16,983.269 1402.8,987.11C1405.58,989.787 1408.19,992.855 1410.63,996.183C1411.25,997.038 1411.87,997.911 1412.47,998.8C1412.63,998.547 1412.74,998.249 1412.83,997.92C1413.04,997.144 1413.07,996.204 1412.99,995.181C1412.64,990.526 1410,984.224 1408.97,982.827C1406.88,980.019 1404.49,977.541 1401.94,975.223ZM1436.46,883.605C1434.38,895.357 1431.85,906.971 1427.14,918.336C1422.39,929.814 1414.31,939.973 1408.42,950.973C1408.26,952.917 1408.28,954.672 1408.54,956.162C1408.88,958.104 1409.6,959.578 1410.95,960.324C1414.06,962.044 1417.48,960.887 1420.71,958.666C1425.88,955.106 1430.54,948.758 1432.8,945.518C1441.82,932.624 1442.12,920.246 1440.41,907.671C1439.35,899.785 1437.5,891.82 1436.46,883.605ZM1438.18,863.814C1437.8,865.125 1437.55,866.505 1437.45,867.97L1437.45,868.048C1437.69,866.637 1437.93,865.226 1438.18,863.814ZM1433.11,822.338C1432.75,823.295 1432.39,824.248 1432.02,825.199C1429.34,832.107 1426.33,838.899 1424.74,846.391C1424.67,846.705 1424.59,847.113 1424.51,847.59L1424.56,848.125C1424.86,851.668 1425.14,855.21 1425.37,858.754C1425.67,859.01 1426.03,859.181 1426.46,859.237C1427.65,859.391 1428.64,858.953 1429.47,858.149C1430.41,857.238 1431.15,855.888 1431.75,854.337C1433.67,849.407 1434.17,842.487 1434.33,839.951C1434.74,833.458 1434.19,827.663 1433.11,822.338ZM1441.77,854.004C1442.38,853.25 1443.02,852.515 1443.68,851.792C1447.67,847.431 1452.44,843.534 1456,839.041C1456.96,837.821 1458.9,834.812 1459.17,832.432C1459.25,831.799 1459.2,831.217 1458.91,830.77C1458.62,830.335 1458.1,830.065 1457.31,829.95C1455.48,829.685 1453.82,830.29 1452.33,831.445C1450.73,832.684 1449.32,834.539 1448.07,836.692C1444.93,842.108 1442.86,849.393 1441.77,854.004ZM1423.34,793.866C1421.25,810.154 1422.63,826.275 1424.05,842.36C1425.75,836.206 1428.24,830.448 1430.51,824.61C1431.18,822.876 1431.83,821.135 1432.43,819.374C1431.28,814.727 1429.76,810.426 1428.17,806.303C1426.52,802.029 1424.8,797.943 1423.34,793.866ZM1428.91,771.046C1426.27,778.008 1424.66,785.241 1423.85,790.337C1425.47,795.404 1427.63,800.411 1429.68,805.717C1431.01,809.163 1432.3,812.731 1433.36,816.515C1434.67,812.188 1435.61,807.701 1435.77,802.869C1436.17,790.455 1433.12,780.251 1428.91,771.046ZM1426.83,766.716C1423.36,769.172 1421.01,772.518 1421.33,777.815C1421.51,780.909 1422.05,783.888 1422.82,786.822C1423.83,781.637 1425.49,775.16 1427.96,769.017C1427.59,768.243 1427.21,767.477 1426.83,766.716ZM1429.75,764.95C1429.22,765.229 1428.7,765.518 1428.2,765.821L1428.25,765.93C1428.35,766.126 1428.45,766.322 1428.55,766.518L1428.8,767.023C1429.11,766.325 1429.42,765.633 1429.75,764.95ZM1433.46,761.467C1437.82,759.673 1442.39,758.159 1445.67,755.91C1446.86,755.094 1447.68,753.639 1447.88,752.356C1447.98,751.668 1447.93,751.026 1447.52,750.654C1447.05,750.219 1446.21,750.236 1444.94,750.694C1440.24,752.382 1436.47,756.445 1433.46,761.467ZM1475.32,667.928C1475.12,667.962 1474.93,668.009 1474.74,668.065C1473.64,668.378 1472.57,668.972 1471.58,669.584C1465.96,673.091 1461.45,677.952 1456,681.674C1452.72,683.915 1449.1,684.983 1445.41,685.853C1441.85,686.691 1438.22,687.344 1434.77,688.785C1427.63,691.761 1420.86,698.932 1417.58,706.982C1415.41,712.29 1414.77,717.988 1416.62,723.112C1420.09,732.717 1430.54,735.98 1439.87,736.72C1452.6,737.731 1463.78,734.495 1473.01,727.866C1476.9,720.289 1479.34,711.128 1481.03,701.683C1481.96,696.42 1483.23,688.398 1482.71,681.168C1482.57,679.203 1482.3,677.296 1481.84,675.524C1480.93,675.939 1479.9,676.3 1478.9,676.445C1477.52,676.648 1476.21,676.431 1475.26,675.552C1473.76,674.166 1473.68,672.265 1474.32,670.262C1474.57,669.488 1474.92,668.698 1475.32,667.928ZM1475.82,725.698C1480.96,721.433 1485.42,716.047 1489.13,709.707C1495.31,699.17 1500.51,686.394 1501.78,674.174C1501.96,672.385 1502.45,668.288 1501.7,665.288C1501.28,663.616 1500.48,662.274 1498.77,662.259C1495.77,662.232 1493.37,664.466 1491.11,666.992C1488.62,669.764 1486.31,672.92 1483.78,674.491C1483.64,674.58 1483.48,674.673 1483.32,674.768C1483.85,676.732 1484.17,678.856 1484.33,681.051C1484.86,688.422 1483.58,696.603 1482.63,701.968C1481.12,710.403 1479,718.597 1475.82,725.698ZM1408.65,710.544C1409.7,706.029 1411.78,701.716 1414.9,698.033C1417.25,695.255 1420.53,693.044 1423.64,690.713C1426.59,688.497 1429.41,686.175 1431,683.047C1433.15,678.823 1432.96,669.995 1430.71,663.052C1429.26,658.569 1426.97,654.835 1423.73,653.838C1421.08,653.024 1418.89,654.47 1417.1,656.678C1414.14,660.321 1412.24,666.059 1411.37,668.92C1407.41,681.879 1407.48,696.472 1408.65,710.544ZM1437.98,663.167C1437.15,665.336 1436.68,667.597 1436.65,669.889C1436.63,671.338 1438.15,676.361 1440.3,679.106C1441.02,680.032 1441.78,680.722 1442.64,680.714C1443.16,680.709 1443.69,680.406 1444.24,679.801C1444.57,679.435 1444.58,678.896 1444.48,678.272C1444.35,677.431 1443.98,676.463 1443.49,675.449C1441.91,672.137 1439.19,668.396 1438.65,666.808C1438.26,665.637 1438.06,664.417 1437.98,663.167ZM1477.11,667.992C1476.62,668.893 1476.16,669.835 1475.87,670.755C1475.44,672.11 1475.35,673.419 1476.37,674.357C1476.96,674.908 1477.8,674.963 1478.67,674.836C1479.59,674.701 1480.55,674.346 1481.38,673.951C1480.77,672.137 1479.93,670.508 1478.81,669.162C1478.29,668.539 1477.71,668.172 1477.11,667.992Z"/></g></svg>