<?xml version="1.0" ?><!DOCTYPE svg  PUBLIC '-//W3C//DTD SVG 1.1//EN'  'http://www.w3.org/Graphics/SVG/1.1/DTD/svg11.dtd'><svg height="100%" style="fill-rule:evenodd;clip-rule:evenodd;stroke-linejoin:round;stroke-miterlimit:2;" version="1.1" viewBox="0 0 6000 6000" width="100%" xml:space="preserve" xmlns="http://www.w3.org/2000/svg" xmlns:serif="http://www.serif.com/" xmlns:xlink="http://www.w3.org/1999/xlink"><g transform="matrix(7.51266,0,0,7.51266,-7993.74,-4069.97)"><path d="M1511.29,685.264C1511,684.977 1510.71,684.699 1510.42,684.428C1509.38,683.482 1507.78,682.016 1506.11,681.039C1504.86,680.307 1503.56,679.861 1502.4,679.963C1501.89,680.008 1501.32,680.285 1500.73,680.823C1500.09,681.423 1499.38,682.38 1498.66,683.554C1496.09,687.768 1493.24,694.943 1491.74,696.907C1485.57,704.983 1476.37,711.242 1471.36,720.141C1466.26,729.22 1466.94,741.435 1467.01,751.557C1467.08,761.504 1472.4,768.553 1476.12,777.366C1476.54,778.366 1477.49,780.723 1477.41,782.529C1477.39,783.048 1477.3,783.518 1476.98,783.821C1476.79,784.002 1476.52,784.103 1476.17,784.139C1475.55,784.203 1475.03,783.955 1474.59,783.534C1474.03,782.999 1473.58,782.212 1473.2,781.316C1471.93,778.311 1471.48,774.127 1471.16,772.605C1469.66,765.465 1467.29,758.917 1465.67,752.263C1464.09,745.741 1463.24,739.115 1464.74,731.7C1465.91,725.886 1468.23,720.237 1470.93,714.973C1472.87,711.181 1475.24,707.707 1477.87,704.358C1479.49,702.283 1481.2,700.286 1482.98,698.333C1483.95,697.264 1484.9,696.173 1485.94,695.163C1486.3,694.81 1486.79,694.581 1487.31,694.371C1487.96,694.109 1488.64,693.885 1489.24,693.604C1490.28,693.115 1491.07,692.442 1491.34,691.378C1491.42,691.051 1491.35,690.783 1491.21,690.559C1491.06,690.337 1490.73,690.071 1490.16,690.046C1489.13,690.002 1486.31,690.807 1486.08,690.839C1483.69,691.18 1480.78,690.557 1478.59,689.702C1475.59,688.535 1473.09,686.496 1470.79,684.28C1468.53,682.098 1466.41,678.749 1463.98,675.829C1461.37,672.702 1458.41,670.079 1454.7,669.558C1451.52,669.114 1449.4,671.184 1448.01,674.267C1446.18,678.34 1445.65,684.197 1445.07,686.724C1443.36,694.139 1440.78,700.908 1438.7,707.612C1436.5,702.241 1433.3,697.305 1428.74,693.62C1426.55,691.853 1424.4,690.377 1422.61,688.364C1422.42,687.504 1421.88,685.247 1421.26,683.974C1421,683.445 1420.7,683.06 1420.42,682.863C1420,682.561 1419.58,682.524 1419.16,682.71C1418.47,683.015 1418.18,683.643 1418.29,684.474C1418.41,685.484 1419.32,686.932 1419.55,687.3C1419.99,687.982 1420.45,688.606 1420.95,689.187C1422.1,694.692 1420.27,700.776 1419.36,706.18C1416.94,720.376 1419.69,732.411 1424.74,745.721C1425.83,748.567 1428.83,755.01 1430.3,758.015C1435.19,767.993 1441.86,778.36 1451.75,784.021C1459.83,788.646 1467.42,790.016 1473.34,792.085C1474.43,792.468 1475.47,792.874 1476.44,793.332C1474.41,793.574 1472.59,795.101 1471.35,797.241C1469.37,800.665 1468.93,805.584 1471.17,808.53C1472.65,810.471 1474.6,811.467 1476.77,811.998C1478.78,812.494 1480.99,812.576 1483.12,812.703C1483.6,812.732 1484.08,812.762 1484.56,812.8C1484.44,814.527 1484.25,816.405 1483.97,818.451C1483.17,824.283 1481.74,830.162 1480.06,835.8C1472.95,859.748 1460.42,880.17 1446.28,900.519C1440.81,908.387 1435.24,916.104 1431.31,924.897C1430.83,925.971 1429,929.868 1429.09,932.4C1429.12,933.224 1429.33,933.926 1429.75,934.446C1429.06,935.587 1428.38,936.733 1427.71,937.885C1415.79,958.396 1409.47,980.017 1404.58,1003.01C1404.26,1004.55 1402.42,1014.06 1400.24,1019.55C1399.72,1020.86 1399.2,1021.94 1398.65,1022.57C1398.55,1022.69 1398.45,1022.79 1398.34,1022.86C1398.3,1022.89 1398.27,1022.92 1398.24,1022.93C1398.2,1022.91 1398.07,1022.81 1397.99,1022.73C1397.84,1022.56 1397.69,1022.35 1397.54,1022.1C1396.86,1020.96 1396.18,1019.11 1395.5,1016.85C1394.2,1012.54 1392.92,1006.81 1391.8,1001.56C1394.57,996.695 1397,991.819 1398.71,986.889C1411.56,949.921 1412.29,908.558 1414.57,869.914C1414.78,866.386 1414.96,862.779 1415.1,859.12C1416.2,855.86 1417.03,852.476 1417.53,848.934C1419,838.319 1417.41,829.24 1414.14,820.911C1412.87,809.456 1410.47,798.28 1406.31,788.097C1404.41,783.456 1402.26,777.736 1399.19,772.924C1397.08,769.624 1394.55,766.75 1391.39,764.89C1389.03,763.499 1387.35,763.271 1386.23,763.649C1384.98,764.076 1384.23,765.249 1383.99,766.92C1383.43,770.922 1385.82,778.055 1387.12,780.234C1393.78,791.471 1401.98,801.432 1408,812.227C1409.65,815.201 1411.15,818.239 1412.39,821.387C1413.76,833.839 1413.79,846.618 1413.32,858.794C1410.39,867.388 1405.58,875.107 1400.4,882.674C1393.14,893.257 1385.15,903.545 1380.32,915.42C1369.26,942.639 1377.34,963.7 1387.04,989.103C1387.72,990.888 1388.73,995.723 1389.91,1001.25C1386.28,1007.57 1382.09,1013.87 1378.22,1020.25C1371.17,1031.84 1365.14,1043.71 1365.04,1056.41C1364.95,1066.35 1369.67,1075.66 1375.19,1084.78C1378.35,1089.98 1381.76,1095.13 1384.64,1100.31C1384.52,1102.57 1384.45,1104.8 1384.42,1107.01C1384.06,1144.03 1394.61,1179.25 1407.35,1213.54C1407.53,1214.01 1408.04,1214.25 1408.51,1214.07C1408.97,1213.9 1409.21,1213.38 1409.04,1212.92C1396.37,1178.83 1385.86,1143.82 1386.23,1107.03C1386.24,1105.84 1386.26,1104.65 1386.3,1103.44C1387.64,1106.09 1388.8,1108.75 1389.67,1111.43C1392.98,1121.67 1394.02,1132.53 1395.18,1143.32C1396.36,1154.25 1397.68,1165.1 1401.54,1175.19C1402.98,1178.97 1405.1,1184.32 1408.11,1188.49C1410.21,1191.39 1412.75,1193.71 1415.76,1194.66C1418.08,1195.38 1419.82,1195.13 1421.1,1194.34C1422.39,1193.55 1423.25,1192.18 1423.75,1190.52C1424.66,1187.51 1424.4,1183.53 1423.84,1180.9C1423.34,1178.58 1421.24,1175.42 1418.55,1171.98C1414.69,1167.04 1409.62,1161.45 1406.83,1156.81C1405.89,1155.25 1405.21,1153.81 1404.96,1152.55C1404.76,1151.52 1404.86,1150.63 1405.47,1149.95C1407.09,1148.17 1409.19,1147.49 1411.52,1147.29C1414.02,1147.08 1416.77,1147.41 1419.49,1147.65C1425.4,1148.19 1431.15,1148.23 1434.51,1142.64C1437.4,1137.85 1437.26,1131.84 1436.37,1125.74C1435.52,1119.9 1433.99,1113.98 1434.08,1109.04C1434.36,1094.34 1440.19,1080.9 1446.78,1068.05C1455.81,1050.46 1466.44,1033.05 1471.42,1013.75C1472.21,1010.68 1473.55,1005.45 1473.24,1000.96C1473.02,997.732 1471.93,994.886 1469.38,993.295C1466.52,991.512 1463.09,992.756 1459.68,995.794C1452.5,1002.21 1445.19,1016.51 1443.58,1020.06C1433.7,1041.83 1430.32,1064.96 1427.74,1088.49C1427,1095.31 1425.83,1105.09 1422.86,1113.48C1420.93,1118.95 1418.24,1123.82 1414.34,1126.81C1412.84,1127.96 1411.44,1128.4 1410.12,1128.3C1408.79,1128.19 1407.57,1127.53 1406.46,1126.57C1402.78,1123.4 1400.25,1117.01 1399.26,1113.54C1394.32,1096.14 1394.6,1075.26 1399.65,1057.94C1400.35,1055.55 1401.71,1050.46 1403.93,1046.72C1405.27,1044.49 1406.88,1042.7 1408.95,1042.62C1409.48,1042.6 1409.87,1042.9 1410.16,1043.35C1410.44,1043.77 1410.64,1044.31 1410.8,1044.92C1411.86,1049 1410.89,1056.13 1410.64,1057.65C1408.38,1071.23 1402.62,1084.08 1400.56,1097.7C1400.2,1100.12 1400.07,1103.66 1400.96,1106.37C1401.45,1107.87 1402.25,1109.12 1403.42,1109.89C1404.6,1110.67 1406.17,1110.99 1408.26,1110.48C1411.65,1109.66 1414.38,1106.74 1416.48,1103.01C1419.47,1097.7 1421.26,1090.8 1422.28,1086.8C1425.39,1074.67 1426.08,1062.25 1427.16,1049.9C1428.23,1037.68 1429.68,1025.53 1434.29,1013.81C1442.98,991.784 1458.57,974.995 1473.87,958.097C1489.33,941.027 1504.48,923.845 1512.11,901.195C1516.3,888.749 1518.25,875.839 1520.29,862.939C1522.5,859.78 1524.61,856.553 1526.62,853.242C1529.18,849 1537.52,833.769 1539.68,822.839C1540.26,819.909 1540.4,817.275 1539.92,815.209C1539.56,813.692 1538.88,812.463 1537.83,811.59C1536.85,810.776 1535.8,810.764 1534.72,811.397C1533.9,811.872 1533.05,812.789 1532.22,814.014C1528.7,819.182 1525.31,830.078 1524.95,831.298C1521.95,841.429 1520.24,851.82 1518.6,862.217C1496.12,894.205 1463.87,918.84 1441.02,950.599C1413.22,989.255 1388.34,1048.03 1384.84,1097.05C1382.27,1092.65 1379.41,1088.27 1376.73,1083.84C1371.39,1075.02 1366.76,1066.04 1366.84,1056.42C1366.94,1044.04 1372.88,1032.49 1379.75,1021.18C1383.29,1015.36 1387.07,1009.61 1390.47,1003.85C1391.85,1010.23 1393.42,1017.02 1394.99,1020.91C1395.51,1022.21 1396.04,1023.21 1396.55,1023.81C1397.06,1024.42 1397.6,1024.69 1398.1,1024.73C1398.6,1024.76 1399.13,1024.58 1399.64,1024.13C1400.39,1023.46 1401.19,1022.05 1401.91,1020.22C1404.13,1014.63 1406.01,1004.95 1406.35,1003.39C1411.19,980.581 1417.44,959.132 1429.27,938.789C1429.94,937.635 1430.62,936.488 1431.3,935.344C1431.95,935.457 1432.76,935.285 1433.67,934.788C1434.83,934.155 1436.23,932.98 1437.73,931.471C1443.32,925.859 1450.49,915.542 1452.21,913.191C1470.88,887.787 1489.85,858.84 1494.09,826.897C1495.07,819.591 1493.93,815.736 1491.85,813.638C1490.79,812.558 1489.44,811.923 1487.94,811.532C1487.93,811.309 1487.91,811.085 1487.9,810.862C1487.62,807.104 1486.82,803.543 1485.25,800.454C1484.65,798.671 1483.85,797.211 1482.87,795.988C1480.69,793.266 1477.64,791.68 1473.93,790.386C1468.1,788.346 1460.61,787.018 1452.64,782.459C1443.06,776.974 1436.65,766.889 1431.92,757.223C1430.46,754.255 1427.49,747.892 1426.43,745.082C1421.49,732.087 1418.77,720.342 1421.13,706.482C1421.95,701.676 1423.4,696.348 1423.05,691.324C1424.47,692.602 1426.03,693.744 1427.61,695.02C1432.54,699.002 1435.78,704.53 1437.86,710.45C1437.66,711.161 1437.46,711.872 1437.28,712.584C1435.07,721.116 1434.23,729.773 1437.46,739.702C1438.67,743.4 1440.23,746.772 1442.04,749.967C1442.59,754.534 1443.6,759.071 1445.5,763.555C1446.37,765.619 1449.8,771.934 1453.4,774.355C1455.24,775.586 1457.12,775.876 1458.82,774.639C1459.74,773.975 1459.87,772.753 1459.25,771.294C1458.24,768.942 1455.29,765.767 1454.7,765.003C1450.74,759.789 1446.9,754.851 1443.78,749.397C1443.39,746.089 1443.25,742.766 1443.16,739.436C1442.94,731.379 1443.07,723.285 1441.15,715.281C1440.75,713.642 1440.29,712.009 1439.74,710.401C1441.91,702.91 1444.91,695.422 1446.83,687.129C1447.39,684.67 1447.88,678.966 1449.65,675.004C1450.68,672.73 1452.11,671.013 1454.45,671.341C1457.74,671.801 1460.29,674.215 1462.6,676.981C1465.07,679.954 1467.24,683.354 1469.54,685.575C1472.01,687.957 1474.72,690.125 1477.94,691.38C1480.4,692.337 1483.65,693.003 1486.33,692.621C1486.44,692.606 1487.14,692.401 1487.93,692.206L1487.92,692.211C1486.76,692.667 1485.49,693.081 1484.68,693.876C1483.62,694.911 1482.64,696.028 1481.64,697.123C1479.84,699.108 1478.1,701.138 1476.45,703.247C1473.75,706.687 1471.32,710.257 1469.33,714.153C1466.56,719.562 1464.18,725.369 1462.97,731.343C1461.42,739.04 1462.28,745.918 1463.92,752.687C1465.53,759.324 1467.9,765.854 1469.4,772.976C1469.79,774.838 1470.42,780.488 1472.33,783.555C1473.32,785.158 1474.66,786.102 1476.35,785.93C1477.17,785.846 1477.78,785.547 1478.22,785.125C1478.86,784.523 1479.17,783.635 1479.21,782.602C1479.3,780.53 1478.26,777.814 1477.78,776.666C1474.16,768.077 1468.88,761.239 1468.81,751.545C1468.74,741.715 1467.97,729.84 1472.93,721.024C1477.9,712.196 1487.05,706.011 1493.17,698C1494.69,696.012 1497.59,688.759 1500.2,684.494C1500.81,683.488 1501.4,682.658 1501.96,682.144C1502.18,681.939 1502.36,681.773 1502.56,681.756C1503.39,681.682 1504.3,682.068 1505.2,682.593C1506.76,683.502 1508.24,684.876 1509.2,685.756C1509.4,685.934 1509.59,686.116 1509.78,686.3L1509.67,686.389C1506.82,688.843 1508.63,692.812 1511.58,694.013C1513.14,694.648 1514.48,694.873 1515.67,694.807C1517.84,699.294 1519.22,704.262 1520.08,708.786C1523.86,728.825 1521.42,752.519 1511.77,770.656C1509.73,774.495 1507.1,778.734 1503.79,782.092C1502.09,782.217 1500.34,781.97 1498.61,781.793C1496.32,781.558 1494.05,781.443 1491.9,782.208C1488.47,783.435 1487.62,785.765 1488.26,787.432C1488.88,789.057 1491.1,790.395 1494.42,789.658C1498.29,788.798 1501.65,786.625 1504.54,783.825C1504.73,783.803 1504.92,783.776 1505.11,783.744C1512.74,782.423 1520.21,777.768 1526.46,773.426C1543.11,761.852 1552.7,742.597 1558.34,723.621C1560.7,715.653 1563.25,706.428 1560.47,698.216C1559.95,696.671 1559.38,695.696 1558.82,695.145C1558.3,694.627 1557.76,694.414 1557.24,694.394C1556.47,694.365 1555.65,694.804 1554.91,695.674C1554.05,696.69 1553.25,698.346 1552.58,700.042C1552.22,698.402 1551.7,696.78 1551.02,695.188C1549.88,692.529 1547.98,690.098 1545.82,688.184C1543.34,685.982 1540,683.915 1536.52,682.931C1532.91,681.91 1529.15,682.052 1525.95,684.286C1523.86,685.75 1522.3,687.895 1520.7,689.749C1519.5,691.135 1518.28,692.361 1516.67,692.824C1515.49,690.576 1514.12,688.465 1512.52,686.602C1513.99,685.726 1515.76,684.875 1516.97,683.858C1518.07,682.944 1518.76,681.891 1518.78,680.678C1518.8,679.536 1518.21,678.167 1516.5,676.58C1513.35,673.638 1508,670.386 1502.71,668.88C1499.07,667.842 1495.45,667.643 1492.56,668.834C1486.54,671.308 1483.08,676.425 1479.54,681.544C1479.26,681.952 1479.36,682.513 1479.77,682.796C1480.18,683.078 1480.74,682.975 1481.02,682.566C1484.36,677.735 1487.56,672.834 1493.24,670.498C1495.8,669.446 1499,669.693 1502.22,670.611C1507.22,672.037 1512.29,675.111 1515.28,677.897C1516.41,678.955 1516.95,679.803 1516.98,680.575C1516.99,681.056 1516.77,681.473 1516.45,681.862C1516.02,682.367 1515.42,682.817 1514.75,683.247C1513.65,683.953 1512.38,684.601 1511.29,685.264ZM1517.97,866.166C1495.6,896.75 1464.63,920.86 1442.49,951.65C1414.34,990.788 1389.17,1050.68 1386.46,1099.9C1388.45,1103.54 1390.18,1107.18 1391.38,1110.88C1394.73,1121.23 1395.79,1132.21 1396.97,1143.13C1398.13,1153.9 1399.41,1164.6 1403.22,1174.55C1404.62,1178.21 1406.65,1183.4 1409.57,1187.43C1411.43,1190 1413.63,1192.11 1416.3,1192.94C1417.97,1193.46 1419.23,1193.38 1420.16,1192.81C1421.09,1192.23 1421.66,1191.2 1422.03,1190C1422.86,1187.27 1422.59,1183.66 1422.08,1181.28C1421.62,1179.13 1419.61,1176.26 1417.13,1173.09C1413.23,1168.09 1408.11,1162.43 1405.29,1157.74C1404.22,1155.97 1403.48,1154.32 1403.2,1152.89C1402.88,1151.23 1403.15,1149.83 1404.14,1148.75C1406.08,1146.61 1408.58,1145.74 1411.36,1145.5C1413.96,1145.27 1416.82,1145.61 1419.65,1145.86C1424.86,1146.33 1430.01,1146.63 1432.97,1141.72C1435.65,1137.26 1435.42,1131.67 1434.59,1126C1433.73,1120.06 1432.19,1114.03 1432.28,1109.01C1432.56,1094.03 1438.46,1080.33 1445.18,1067.23C1454.14,1049.76 1464.73,1032.47 1469.67,1013.3C1470.43,1010.37 1471.74,1005.38 1471.45,1001.09C1471.26,998.47 1470.49,996.111 1468.43,994.823C1467.38,994.171 1466.24,994.127 1465.05,994.504C1463.7,994.933 1462.3,995.875 1460.88,997.137C1453.88,1003.39 1446.79,1017.34 1445.22,1020.81C1435.42,1042.4 1432.09,1065.35 1429.53,1088.69C1428.77,1095.61 1427.58,1105.56 1424.56,1114.08C1422.5,1119.9 1419.59,1125.06 1415.44,1128.24C1413.51,1129.72 1411.67,1130.23 1409.97,1130.09C1408.28,1129.95 1406.7,1129.16 1405.28,1127.93C1401.35,1124.54 1398.59,1117.74 1397.53,1114.04C1392.5,1096.32 1392.78,1075.06 1397.92,1057.44C1398.65,1054.95 1400.08,1049.68 1402.39,1045.8C1404.08,1042.97 1406.27,1040.92 1408.88,1040.82C1410.72,1040.76 1411.95,1042.17 1412.54,1044.47C1413.66,1048.79 1412.68,1056.34 1412.42,1057.94C1410.15,1071.52 1404.39,1084.35 1402.34,1097.97C1402.01,1100.15 1401.87,1103.36 1402.67,1105.81C1403.03,1106.9 1403.56,1107.83 1404.41,1108.39C1405.24,1108.94 1406.36,1109.09 1407.84,1108.73C1410.8,1108.02 1413.08,1105.37 1414.91,1102.12C1417.82,1096.96 1419.54,1090.24 1420.54,1086.35C1423.62,1074.32 1424.3,1062 1425.37,1049.74C1426.45,1037.35 1427.94,1025.03 1432.62,1013.15C1441.38,990.916 1457.1,973.947 1472.54,956.889C1487.83,940.002 1502.86,923.028 1510.4,900.62C1514.18,889.395 1516.13,877.793 1517.97,866.166ZM1413.07,864.396C1410.12,871.182 1406.13,877.49 1401.88,883.692C1394.7,894.169 1386.77,904.342 1381.99,916.097C1371.12,942.834 1379.19,963.509 1388.72,988.461C1389.33,990.061 1390.2,994.106 1391.23,998.907C1393.53,994.727 1395.54,990.533 1397.01,986.298C1409.81,949.485 1410.5,908.291 1412.77,869.808C1412.88,868.022 1412.98,866.216 1413.07,864.396ZM1488.01,813.393C1488.14,821.906 1485.99,831.061 1484.56,837.56C1476.38,874.845 1451.79,901.894 1432.51,933.367C1432.6,933.319 1432.7,933.266 1432.81,933.208C1433.86,932.637 1435.1,931.562 1436.46,930.201C1441.98,924.653 1449.05,914.449 1450.76,912.125C1469.26,886.957 1488.1,858.306 1492.31,826.66C1493.17,820.203 1492.41,816.758 1490.57,814.904C1489.85,814.176 1488.98,813.706 1488.01,813.393ZM1486.21,814.603C1486.1,815.892 1485.95,817.254 1485.75,818.694C1484.94,824.617 1483.49,830.587 1481.79,836.312C1474.62,860.448 1462.01,881.038 1447.76,901.547C1442.36,909.321 1436.84,916.941 1432.96,925.631C1432.58,926.469 1431.27,929.186 1430.95,931.399C1430.89,931.806 1430.87,932.192 1430.9,932.539C1450.11,901.198 1474.65,874.3 1482.81,837.174C1484.14,831.086 1486.15,822.624 1486.21,814.603ZM1520.95,858.793C1522.37,856.669 1523.75,854.509 1525.07,852.311C1527.59,848.149 1535.79,833.213 1537.92,822.489C1538.36,820.275 1538.54,818.248 1538.33,816.549C1538.14,815.025 1537.64,813.779 1536.68,812.972C1536.35,812.698 1535.99,812.738 1535.63,812.952C1534.99,813.323 1534.35,814.069 1533.7,815.026C1530.3,820.042 1527.02,830.625 1526.67,831.81C1524.05,840.661 1522.41,849.712 1520.95,858.793ZM1414.87,829.189C1415.37,836.54 1415.46,843.935 1415.33,851.189C1415.49,850.363 1415.62,849.529 1415.74,848.686C1416.73,841.557 1416.29,835.143 1414.87,829.189ZM1411.6,815.195C1410.22,805.986 1408.02,797.051 1404.64,788.778C1403.09,784.976 1401.37,780.435 1399.09,776.291C1396.87,772.261 1394.14,768.6 1390.48,766.441C1389.38,765.796 1388.49,765.43 1387.76,765.315C1387.24,765.231 1386.83,765.282 1386.53,765.499C1386.07,765.824 1385.88,766.435 1385.78,767.172C1385.26,770.825 1387.48,777.327 1388.66,779.316C1395.34,790.567 1403.54,800.542 1409.57,811.351C1410.28,812.619 1410.95,813.899 1411.6,815.195ZM1483.62,801.227C1482.66,799.351 1481.39,797.67 1479.73,796.258C1478.66,795.351 1477.62,795.005 1476.65,795.12C1475.13,795.299 1473.84,796.537 1472.91,798.142C1471.28,800.963 1470.76,805.012 1472.61,807.439C1473.81,809.026 1475.43,809.816 1477.19,810.25C1479.11,810.721 1481.2,810.785 1483.23,810.906C1483.7,810.935 1484.18,810.968 1484.65,811.01C1484.8,806.896 1484.43,803.722 1483.62,801.227ZM1501.83,783.892C1500.7,783.835 1499.56,783.699 1498.43,783.583C1496.4,783.376 1494.4,783.228 1492.51,783.904C1491.36,784.314 1490.59,784.855 1490.17,785.459C1489.87,785.906 1489.79,786.376 1489.94,786.789C1490.12,787.245 1490.55,787.608 1491.15,787.83C1491.89,788.107 1492.87,788.159 1494.03,787.901C1496.94,787.254 1499.53,785.805 1501.83,783.892ZM1551.34,703.676C1551.09,701.041 1550.45,698.429 1549.37,695.898C1548.33,693.479 1546.59,691.273 1544.63,689.531C1542.33,687.495 1539.25,685.573 1536.03,684.663C1532.94,683.79 1529.72,683.85 1526.98,685.761C1524.48,687.509 1522.82,690.303 1520.82,692.26C1519.82,693.24 1518.74,694.025 1517.48,694.455C1519.6,698.977 1520.99,703.923 1521.85,708.453C1525.7,728.874 1523.2,753.018 1513.36,771.502C1511.58,774.844 1509.36,778.447 1506.65,781.58C1513.39,779.932 1519.89,775.795 1525.43,771.948C1541.75,760.607 1551.09,741.702 1556.61,723.109C1558.88,715.48 1561.43,706.656 1558.77,698.793C1558.42,697.784 1558.08,697.072 1557.72,696.615C1557.53,696.367 1557.37,696.201 1557.17,696.193C1557.07,696.189 1556.97,696.238 1556.87,696.302C1556.67,696.424 1556.48,696.611 1556.29,696.837C1554.98,698.388 1553.82,701.58 1553.15,703.849C1553.86,712.489 1550.71,721.342 1545.71,728.55C1543.73,733.187 1541.39,737.673 1538.58,741.938C1537.59,743.453 1535.59,746.805 1533.29,749.054C1531.54,750.762 1529.58,751.797 1527.75,751.385C1526.96,751.209 1526.52,750.42 1526.89,749.206C1527.32,747.846 1528.76,745.689 1528.97,745.386C1532.18,740.81 1536.18,736.78 1540.01,732.731C1541.47,731.181 1542.86,729.49 1544.12,727.691C1547.12,720.622 1549.24,713.192 1550.82,705.659C1550.9,705.243 1551.08,704.537 1551.34,703.676ZM1444.49,753.997C1445.07,756.969 1445.92,759.924 1447.15,762.854C1447.85,764.5 1450.27,769.066 1453.06,771.754C1453.75,772.421 1454.46,772.969 1455.18,773.303C1456.06,773.716 1456.95,773.775 1457.77,773.182C1457.87,773.106 1457.86,772.974 1457.84,772.833C1457.81,772.582 1457.72,772.302 1457.59,772.004C1456.64,769.784 1453.82,766.814 1453.27,766.093C1450.17,762.019 1447.16,758.107 1444.49,753.997ZM1540.98,734.319C1537.32,738.187 1533.51,742.048 1530.45,746.42C1530.28,746.65 1529.31,748.085 1528.8,749.25C1528.74,749.383 1528.69,749.542 1528.65,749.683C1529.79,749.68 1530.93,748.834 1532.03,747.766C1534.23,745.615 1536.13,742.398 1537.08,740.949C1538.5,738.794 1539.79,736.581 1540.98,734.319ZM1438.86,713.648C1436.86,721.666 1436.14,729.823 1439.18,739.144C1439.87,741.276 1440.69,743.297 1441.61,745.236C1441.48,743.323 1441.41,741.405 1441.36,739.485C1441.15,731.552 1441.29,723.582 1439.4,715.701C1439.23,715.015 1439.06,714.331 1438.86,713.648ZM1511.01,687.612C1510.95,687.659 1510.9,687.706 1510.84,687.753C1509.1,689.254 1510.45,691.611 1512.26,692.346C1513.17,692.717 1513.99,692.925 1514.73,692.993C1513.66,691.049 1512.43,689.228 1511.01,687.612Z"/></g></svg>