<svg width="201" height="57" viewBox="0 0 201 57" fill="none" xmlns="http://www.w3.org/2000/svg">
<path d="M18.8851 54.5402C21.0873 54.2973 23.3261 54.2136 25.4965 53.7833C35.8794 51.7249 42.836 41.5388 40.833 31.4418C39.148 22.9483 30.3072 17.333 21.8889 21.0815C21.7345 21.1503 21.5635 21.1816 21.0737 21.3281C21.426 19.4368 21.6429 17.6974 22.0826 16.0167C23.5006 10.599 26.169 5.98643 30.9922 2.88177C37.169 -1.09427 45.3956 -0.394931 51.2975 4.65579C57.4462 9.91789 60.237 16.8362 60.5072 24.7466C60.8894 35.9331 56.745 45.1702 47.4866 51.618C38.7379 57.7109 29.1631 58.3768 19.2244 54.7631C19.1075 54.7206 19.0005 54.6469 18.8953 54.5778C18.8726 54.5627 18.8778 54.5051 18.8851 54.5402Z" fill="#B6D7D0"/>
<path d="M77.1554 50.4524C77.1554 49.7753 77.1554 49.2636 77.1554 48.7522C77.1554 39.5907 77.152 30.4292 77.1572 21.2677C77.1588 18.6199 76.669 16.1726 74.539 14.3269C74.3391 14.1539 74.1808 13.8231 74.1706 13.5593C74.1295 12.4875 74.1534 11.4131 74.1534 10.2503C74.7179 10.219 75.1399 10.1757 75.562 10.1752C79.4653 10.17 83.3697 10.2232 87.2714 10.1426C88.516 10.1171 88.7873 10.5584 88.7742 11.7021C88.7219 16.304 88.7529 20.9069 88.7532 25.5093C88.7532 26.0236 88.7532 26.5379 88.7532 27.1757C89.2918 27.2109 89.7056 27.2609 90.1195 27.2614C94.7167 27.2669 99.315 27.2192 103.911 27.2951C105.162 27.3157 105.471 26.8884 105.403 25.7314C105.268 23.4381 105.38 21.1212 105.105 18.8485C104.962 17.6618 104.504 16.2313 103.676 15.4684C101.982 13.9075 102.453 12.1489 102.493 10.2589C107.325 10.2589 112.067 10.2589 116.883 10.2589C116.883 23.6508 116.883 36.9565 116.883 50.3578C113.062 50.3578 109.313 50.3578 105.385 50.3578C105.385 49.8472 105.385 49.3851 105.385 48.9232C105.385 44.1037 105.356 39.2836 105.407 34.4646C105.419 33.3887 105.107 33.0532 104.02 33.0657C99.3795 33.1199 94.7386 33.0873 90.0979 33.091C89.7134 33.0912 89.3288 33.1241 88.7532 33.1504C88.7532 33.7596 88.7532 34.3106 88.7532 34.8614C88.7529 39.5941 88.7253 44.3271 88.773 49.0592C88.7836 50.123 88.479 50.4947 87.3847 50.4746C84.0492 50.4136 80.7119 50.4524 77.1554 50.4524Z" fill="#B6D7D0"/>
<path d="M20.8795 9.61579C20.0498 12.8409 19.0768 15.9012 18.4985 19.0346C17.5451 24.2018 17.9414 29.2439 20.8012 33.8567C24.1442 39.2489 30.2796 41.6094 36.3528 39.8476C36.6374 39.765 36.9261 39.6975 37.5088 39.5461C37.1901 40.4411 37.0089 41.1785 36.6788 41.8417C34.0101 47.2052 29.4712 50.0231 23.7602 51.0863C12.1546 53.2471 2.91123 44.9044 1.00148 34.3736C-0.363594 26.8472 1.17644 19.9164 6.50161 14.1853C10.2716 10.128 14.9652 8.4431 20.5056 9.48442C20.6694 9.51517 20.8235 9.59546 20.8795 9.61579Z" fill="#B6D7D0"/>
<path d="M160.295 21.6285C158.663 21.6285 157.279 21.6598 155.898 21.6037C155.599 21.5915 155.157 21.334 155.044 21.0741C153.191 16.8449 149.84 15.0529 145.389 15.226C140.704 15.408 136.859 17.251 135.095 21.8362C132.92 27.4925 133.089 33.1956 136.137 38.538C139.688 44.7637 147.666 46.8495 154.628 43.493C156.136 42.7661 157.52 41.7821 159.081 40.845C160.102 41.9823 161.195 43.1974 162.378 44.5143C160.42 46.5127 158.282 48.2127 155.736 49.2188C146.528 52.8576 137.565 52.3522 129.374 46.6274C123.341 42.41 121.156 36.0956 121.468 28.8771C121.869 19.6074 127.482 12.8499 136.985 10.3948C144.447 8.4667 151.838 8.80399 159.07 11.6428C159.953 11.9897 160.351 12.4089 160.321 13.4233C160.243 16.1036 160.295 18.7879 160.295 21.6285Z" fill="#B6D7D0"/>
<path d="M193.649 27.4358C193.649 29.3631 193.649 31.0797 193.649 32.9155C191.225 32.9155 188.889 32.9155 186.553 32.9155C184.384 32.9155 182.213 32.9666 180.046 32.8944C178.987 32.8592 178.721 33.2499 178.73 34.2519C178.772 39.116 178.69 43.9819 178.786 48.8444C178.813 50.2345 178.347 50.5139 177.09 50.478C174.229 50.3966 171.363 50.4091 168.501 50.4738C167.427 50.498 167.103 50.174 167.108 49.0832C167.149 39.8755 167.12 30.6676 167.138 21.4597C167.142 18.7705 166.743 16.2625 164.568 14.3702C164.371 14.1992 164.237 13.8562 164.227 13.5877C164.189 12.5122 164.212 11.4344 164.212 10.2656C176.45 10.2656 188.573 10.2656 200.801 10.2656C200.801 13.4816 200.801 16.6707 200.801 20.041C199.433 20.041 198.058 20.0798 196.689 20.0074C196.423 19.9933 196.096 19.5903 195.939 19.2919C194.816 17.1547 193.017 15.841 190.678 15.7373C186.787 15.5647 182.883 15.6904 178.837 15.6904C178.806 16.1833 178.754 16.6436 178.752 17.1039C178.745 19.9703 178.747 22.837 178.749 25.7037C178.75 27.4308 178.752 27.4339 180.422 27.4347C184.327 27.4366 188.232 27.4355 192.136 27.4355C192.608 27.4358 193.08 27.4358 193.649 27.4358Z" fill="#B6D7D0"/>
</svg>
