<svg width="202" height="39" viewBox="0 0 202 39" fill="none" xmlns="http://www.w3.org/2000/svg">
<path fill-rule="evenodd" clip-rule="evenodd" d="M93.6377 0.740535V0.842397H93.3362H93.0347V0.94426V1.04612H92.8274H92.6201V1.13695V1.22777L92.4222 1.24101L92.2244 1.25428V1.34465V1.43505H92.1207H92.0171V1.53692V1.63878H91.8192H91.6214V1.74064V1.84251H91.52H91.4186L91.4051 2.03697L91.3916 2.23144H91.2992H91.2068V2.3333V2.43516H91.1031H90.9995V2.53702V2.63889H90.8959H90.7922V2.84261V3.04634H90.698H90.6038L90.6037 3.18987C90.6036 3.26881 90.5981 3.40217 90.5914 3.4862L90.5793 3.63899H90.491H90.4026L90.3902 4.23404C90.3834 4.56131 90.3834 5.10304 90.3902 5.43787L90.4026 6.04666H90.4917H90.5808L90.5943 6.25039L90.6079 6.45411H90.7H90.7922V6.64858V6.84304H90.8846H90.977L90.9905 7.03751L91.004 7.23197H91.1054H91.2068V7.3431V7.45422H91.301H91.3952V7.54682V7.63943H91.4989H91.6025V7.74129V7.84315H91.7062H91.8098V7.94501V8.04688H91.9134H92.0171V8.13948V8.23208H92.1207H92.2244V8.33394V8.43581H92.4222H92.6201V8.53767V8.63953H92.8274H93.0347V8.7414V8.84326H93.4398H93.845V8.93586V9.02846H94.5611H95.2772V8.93586V8.84326H95.6823H96.0875V8.7414V8.63953H96.2853H96.4832V8.53767V8.43581H96.6905H96.8978V8.33394V8.23208H97.0014H97.1051V8.14044V8.04882L97.204 8.04321L97.3029 8.03762L97.3086 7.94133L97.3143 7.84502L97.4123 7.83947L97.5102 7.83389L97.5159 7.73666L97.5216 7.63943H97.6149H97.7081V7.53756V7.4357H97.8117H97.9154V7.33384V7.23197H98.019H98.1227V7.03751V6.84304H98.2148H98.307L98.3205 6.63932L98.3341 6.43559H98.4262H98.5184V6.13926V5.84294H98.622H98.7257V4.84283V3.84272H98.6343H98.5428L98.5307 3.68993C98.5241 3.6059 98.5186 3.46837 98.5185 3.38434L98.5184 3.23154H98.4262H98.3341L98.3205 3.02782L98.307 2.82409H98.2148H98.1227V2.62963V2.43516H98.019H97.9154V2.2407V2.04623H97.8117H97.7081V1.94437V1.84251H97.6045H97.5008V1.74064V1.63878H97.3972H97.2935V1.54838V1.458L97.0956 1.44474L96.8978 1.4315V1.34288V1.25428L96.6999 1.24101L96.5021 1.22777V1.13932V1.05088L96.2948 1.03768L96.0875 1.02447V0.933888V0.843324L95.7813 0.838229L95.475 0.833137L95.4694 0.735905L95.4636 0.638672H94.5507H93.6377V0.740535ZM76.7532 7.04677V13.0474H76.69C76.6553 13.0474 76.562 13.042 76.4827 13.0354L76.3386 13.0235V12.9336V12.8437H76.2349H76.1313V12.7418V12.64H75.9334H75.7356V12.5494V12.4588L75.5283 12.4455L75.321 12.4322V12.3422V12.2523L75.1184 12.247L74.9158 12.2418L74.9101 12.1445L74.9044 12.0473L74.6557 12.0472C74.5189 12.0471 74.3371 12.0417 74.2516 12.0352L74.0961 12.0233V11.9334V11.8436H73.4837H72.8712V11.751V11.6584H72.1645H71.4579V11.751V11.8436H70.7418H70.0257V11.9334V12.0233L69.8702 12.0352C69.7847 12.0417 69.6024 12.0471 69.4651 12.0472L69.2154 12.0473V12.1372V12.227L69.0599 12.2389C68.9744 12.2455 68.8345 12.2509 68.749 12.2509L68.5935 12.251V12.3436V12.4362L68.4475 12.4364C68.3672 12.4364 68.2315 12.4418 68.146 12.4484L67.9905 12.4602V12.5495V12.6387L67.7879 12.644L67.5854 12.6492L67.5797 12.7465L67.574 12.8437H67.3771H67.1802V12.9456V13.0474H66.9833H66.7865L66.7807 13.1446L66.775 13.2419L66.6667 13.2474L66.5583 13.253V13.3429V13.4328L66.3605 13.446L66.1626 13.4593V13.5497V13.6401H66.059H65.9553V13.7419V13.8438H65.8517H65.748V13.9457V14.0475H65.5502H65.3523V14.1494V14.2512H65.2487H65.145V14.3531V14.455H65.0414H64.9377V14.5568V14.6587H64.8435H64.7493V14.7513V14.8439H64.6456H64.542V14.9458V15.0476H64.4406H64.3392L64.3257 15.2421L64.3122 15.4366H64.2198H64.1274V15.5384V15.6403H64.0238H63.9201V15.7412V15.8421L63.8212 15.8477L63.7223 15.8533L63.7169 16.0422L63.7115 16.2311L63.6133 16.2366L63.515 16.2422L63.5093 16.3487L63.5037 16.4552H63.4104H63.3171V16.6497V16.8441H63.2155H63.114L63.1004 17.0478L63.0868 17.2516H62.9947H62.9025V17.3534V17.4553H62.8111H62.7196L62.7074 17.597C62.7007 17.6749 62.6952 17.8083 62.6952 17.8933V18.048H62.6028H62.5104L62.4969 18.2424L62.4835 18.4369H62.3921H62.3008L62.2954 18.6452L62.2901 18.8536L62.1916 18.8592L62.0932 18.8648L62.088 19.1555L62.0828 19.4463L61.9839 19.4518L61.8849 19.4575V19.8444V20.2314L61.786 20.237L61.6871 20.2426L61.682 20.6455L61.6769 21.0483H61.586H61.4951L61.4827 21.3568C61.4759 21.5265 61.4704 21.7516 61.4704 21.8569V22.0484H61.3761H61.2819L61.2819 22.3493C61.2819 22.5149 61.2763 22.9191 61.2694 23.2476L61.257 23.8449H61.1658H61.0746V25.1413V26.4377H61.1658H61.257L61.2694 26.8961C61.2763 27.1482 61.2819 27.5566 61.2819 27.8036L61.2819 28.2528H61.3761H61.4704V28.4443C61.4704 28.5496 61.4759 28.7746 61.4827 28.9443L61.4951 29.2529H61.5864H61.6776V29.6511V30.0492H61.7813H61.8849V30.3548V30.6604H61.9764H62.0679L62.08 30.8021C62.0867 30.8801 62.0922 31.0134 62.0922 31.0984V31.2531H62.1837H62.2751L62.2872 31.4059C62.2938 31.4899 62.2993 31.6233 62.2994 31.7022L62.2995 31.8457H62.3917H62.4838L62.4974 32.0495L62.5109 32.2532H62.6031H62.6952V32.4476V32.6421H62.7989H62.9025V32.8458V33.0496H63.0062H63.1098V33.1514V33.2533H63.2022H63.2946L63.3081 33.4478L63.3216 33.6422H63.4126H63.5037L63.5093 33.7487L63.515 33.8552L63.6139 33.8608L63.7128 33.8664V34.0599V34.2534H63.8165H63.9201V34.3553V34.4571H64.0238H64.1274V34.559V34.6609H64.2311H64.3347V34.7627V34.8646H64.4289H64.5231V34.9572V35.0498H64.6268H64.7304V35.1516V35.2535H64.8341H64.9377V35.3554V35.4572H65.0414H65.145V35.5591V35.661H65.2487H65.3523V35.7526V35.8442L65.4512 35.8498L65.5502 35.8554L65.5559 35.9527L65.5616 36.0499H65.6642H65.7669V36.1518V36.2536H65.9647H66.1626V36.3555V36.4573H66.3605H66.5583V36.549V36.6407L66.6667 36.6463L66.775 36.6518L66.7807 36.749L66.7865 36.8463H66.9833H67.1802V36.9481V37.05H67.3375C67.4241 37.05 67.5598 37.0554 67.6391 37.062L67.7832 37.0739V37.1638V37.2537H67.9905H68.1978V37.3436V37.4335L68.342 37.4455C68.4213 37.4521 68.6036 37.4575 68.7471 37.4575H69.0081V37.5481V37.6388L69.4227 37.6523L69.8373 37.6659V37.7561V37.8464H71.5615H73.2858V37.7565V37.6667L73.4413 37.6548C73.5268 37.6482 73.6667 37.6428 73.7522 37.6428L73.9076 37.6427V37.5501V37.4575H74.2092H74.5107V37.3556V37.2537H74.8122H75.1137V37.1519V37.05H75.321H75.5283V36.9481V36.8463H75.7261H75.924V36.7557V36.6651L76.1313 36.6518L76.3386 36.6385V36.5479V36.4573H76.4422H76.5459V36.3555V36.2536H76.7437H76.9416V36.1518V36.0499H77.0443H77.1469L77.1526 35.9527L77.1583 35.8554L77.3609 35.8502L77.5635 35.8449V36.0493V36.2536H77.6549H77.7463L77.7584 36.4064C77.7651 36.4905 77.7706 36.6696 77.7706 36.8046L77.7707 37.05H77.865H77.9592V37.1519V37.2537H80.6068H83.2545V19.1499V1.04612H80.0038H76.7532V7.04677ZM106.071 1.14336L106.066 1.24059L105.967 1.24618L105.868 1.25179V19.2528V37.2537H108.713H111.559V37.1621V37.0705L111.658 37.0648L111.757 37.0593L111.762 36.7583L111.767 36.4573H111.861H111.954V36.2009C111.954 36.0598 111.96 35.8806 111.967 35.8027L111.979 35.661H112.173H112.367L112.373 35.7582L112.378 35.8554L112.477 35.861L112.576 35.8666V35.9582V36.0499H112.68H112.784V36.1518V36.2536H112.887H112.991V36.3555V36.4573H113.095H113.198V36.5482V36.639L113.396 36.6522L113.594 36.6655V36.7537V36.8419L113.792 36.8551L113.99 36.8683V36.9592V37.05H114.197H114.404V37.1519V37.2537H114.705H115.005L115.011 37.351L115.017 37.4482L115.323 37.4533L115.629 37.4584V37.5505V37.6427L115.879 37.6427C116.016 37.6427 116.338 37.6482 116.595 37.6549L117.061 37.6671V37.7567V37.8464H117.768H118.475V37.756V37.6656L119.096 37.6519L119.718 37.6382V37.5478V37.4575H120.114H120.51V37.3556V37.2537H120.821H121.132V37.1519V37.05H121.329H121.525L121.531 36.9528L121.537 36.8555L121.739 36.8503L121.942 36.845V36.7548V36.6646L122.14 36.6514L122.338 36.6381V36.5487V36.4592L122.446 36.4536L122.554 36.4481L122.56 36.3508L122.566 36.2536H122.763H122.96V36.1518V36.0499H123.063H123.167V35.948V35.8462H123.27H123.374V35.7553V35.6645L123.572 35.6513L123.77 35.638V35.5384V35.4387H123.874H123.977V35.3461V35.2535H124.081H124.184V35.1516V35.0498H124.278H124.371L124.377 34.9525L124.382 34.8553L124.48 34.8497L124.578 34.8442L124.584 34.7479L124.59 34.6516L124.689 34.646L124.787 34.6404V34.5395V34.4386H124.891H124.995V34.2441V34.0497H125.098H125.202V33.9478V33.8459H125.295H125.389L125.394 33.7487L125.4 33.6515L125.497 33.646L125.593 33.6404L125.607 33.4469L125.62 33.2533H125.713H125.805V33.1514V33.0496H125.909H126.012V32.8561V32.6626L126.111 32.657L126.21 32.6514L126.216 32.4523L126.221 32.2532H126.314H126.406L126.412 32.156L126.418 32.0587L126.516 32.0531L126.615 32.0475V31.8939C126.615 31.8093 126.621 31.6764 126.628 31.5985L126.64 31.4568H126.731H126.823V31.2531V31.0494H126.926H127.03V30.754V30.4586L127.129 30.453L127.228 30.4474L127.233 30.1557L127.238 29.864H127.329H127.42L127.432 29.6945C127.439 29.6013 127.445 29.4638 127.445 29.3889V29.2529H127.538H127.632L127.637 28.85L127.642 28.4472L127.741 28.4416L127.84 28.436V27.986C127.84 27.7385 127.846 27.4723 127.852 27.3943L127.865 27.2526H127.956H128.048V26.1507V25.0487H128.142H128.236V24.2523V23.4559H128.142H128.048V22.2521V21.0483H127.944H127.84V20.5482V20.0482H127.749H127.657L127.645 19.8954C127.639 19.8113 127.633 19.628 127.633 19.4879L127.633 19.2333H127.541H127.449L127.435 18.8443L127.421 18.4554H127.329H127.237L127.237 18.3026C127.237 18.2186 127.232 18.081 127.225 17.997L127.213 17.8442H127.121H127.03V17.6405V17.4368H126.938H126.847L126.835 17.2951C126.828 17.2171 126.823 17.0884 126.823 17.009V16.8646L126.724 16.859L126.625 16.8534L126.619 16.6552L126.614 16.4571L126.516 16.4515L126.418 16.4459L126.412 16.2468L126.407 16.0477H126.313H126.22V15.9459V15.844H126.116H126.012V15.6495V15.4551H125.909H125.805V15.344V15.2328H125.713H125.62L125.607 15.0384L125.593 14.8439H125.492H125.39V14.742V14.6402H125.297H125.204L125.198 14.5429L125.193 14.4457L125.094 14.4401L124.995 14.4345V14.3336V14.2327H124.891H124.787V14.1401V14.0475H124.693H124.599V13.9457V13.8438H124.495H124.392V13.7419V13.6401H124.289H124.186L124.181 13.5428L124.175 13.4456L124.076 13.44L123.977 13.4344V13.3428V13.2511H123.874H123.77V13.1515V13.0518L123.572 13.0386L123.374 13.0253V12.9345V12.8437H123.271H123.169L123.163 12.7465L123.157 12.6492L122.955 12.644L122.752 12.6387V12.5477V12.4567L122.653 12.4511L122.554 12.4455L122.549 12.3483L122.543 12.251H122.387C122.301 12.251 122.165 12.2456 122.086 12.239L121.942 12.2271V12.1378V12.0486L121.739 12.0433L121.537 12.038L121.531 11.9408L121.525 11.8436H121.225H120.924V11.7537V11.6639L120.769 11.652C120.683 11.6454 120.497 11.64 120.354 11.64L120.095 11.6399V11.5494V11.4589L119.285 11.4452L118.475 11.4314V11.3412V11.2509H117.966H117.457V11.3435V11.4361L117.207 11.4362C117.07 11.4362 116.748 11.4417 116.491 11.4484L116.025 11.4606V11.5502V11.6399L115.775 11.64C115.638 11.64 115.456 11.6454 115.37 11.652L115.215 11.6639V11.7537V11.8436H114.913H114.612V11.9454V12.0473H114.404H114.197V12.1492V12.251H113.999H113.801V12.3414V12.4318L113.603 12.4451L113.405 12.4583V12.5491V12.64H113.302H113.198V12.7418V12.8437H113.095H112.991V12.9456V13.0474H112.887H112.784V13.1493V13.2511H112.68H112.576V7.14863V1.04612H109.327H106.077L106.071 1.14336ZM177.929 19.1499V37.2537H181.283H184.637V19.1499V1.04612H181.283H177.929V19.1499ZM140.673 11.3405V11.4301L140.048 11.4424C139.705 11.4491 139.293 11.4547 139.134 11.4547H138.845V11.5473V11.6399L138.492 11.64C138.298 11.64 138.069 11.6454 137.983 11.652L137.828 11.6639V11.7537V11.8436H137.413H136.999V11.9454V12.0473H136.697H136.396V12.1372V12.227L136.24 12.2389C136.155 12.2455 136.015 12.2509 135.929 12.2509L135.774 12.251V12.3409V12.4308L135.618 12.4426C135.533 12.4492 135.397 12.4546 135.317 12.4546L135.171 12.4548V12.5467V12.6387L134.968 12.644L134.766 12.6492L134.76 12.7465L134.754 12.8437H134.454H134.153V12.9456V13.0474H133.946H133.739V13.1373V13.2272L133.594 13.2392C133.515 13.2458 133.379 13.2511 133.293 13.2511H133.136V13.3417V13.4323L132.928 13.4456L132.721 13.4589V13.5495V13.6401H132.523H132.325V13.7419V13.8438H132.118H131.911V13.9457V14.0475H131.713H131.515V14.1494V14.2512H131.402H131.289V14.3421V14.4329L131.091 14.4461L130.893 14.4594V14.5476V14.6358L130.698 14.6488L130.503 14.6619L130.491 14.8013C130.484 14.878 130.484 15.0107 130.491 15.0961L130.503 15.2514H130.592H130.682L130.696 15.4458L130.709 15.6403H130.799H130.889L130.902 15.8348L130.916 16.0292H131.008H131.1V16.1403V16.2515H131.204H131.308V16.4459V16.6404H131.411H131.515V16.8339V17.0274L131.614 17.033L131.713 17.0386L131.718 17.1451L131.724 17.2516H131.817H131.911V17.446V17.6405H132.012H132.113L132.127 17.835L132.14 18.0294H132.233H132.325V18.1406V18.2517H132.418H132.51L132.524 18.4461L132.537 18.6406H132.627H132.717L132.73 18.8443L132.744 19.0481H132.836H132.928V19.1499V19.2518H133.032H133.136V19.4463V19.6407H133.239H133.343V19.5389V19.437H133.446H133.55V19.3444V19.2518H133.748H133.946V19.1521V19.0525L134.144 19.0392L134.342 19.026V18.9352V18.8443H134.455H134.568V18.7535V18.6627L134.766 18.6494L134.963 18.6362V18.5478V18.4595L135.171 18.4461L135.378 18.4328V18.3445V18.2561L135.576 18.2428L135.774 18.2296V18.1411V18.0527L135.981 18.0395L136.188 18.0263V17.9353V17.8442H136.396H136.603V17.7424V17.6405H136.801H136.999V17.5506V17.4608L137.154 17.4489C137.24 17.4424 137.38 17.4369 137.465 17.4369L137.62 17.4368V17.3442V17.2516L137.767 17.2515C137.847 17.2514 137.983 17.246 138.068 17.2395L138.224 17.2276V17.1377V17.0478H138.534H138.845V16.958V16.8681L138.99 16.8561C139.069 16.8495 139.78 16.8441 140.57 16.8441C141.359 16.8441 142.07 16.8495 142.15 16.8561L142.294 16.8681V16.958V17.0478H142.491H142.688L142.693 17.1451L142.699 17.2423L142.807 17.2479L142.916 17.2534V17.3544V17.4553H143.008H143.101L143.114 17.6498L143.128 17.8442H143.217H143.307L143.321 18.048L143.334 18.2517H143.427H143.519L143.519 18.4508C143.519 18.5603 143.524 18.7807 143.531 18.9407L143.543 19.2315L143.63 19.237L143.717 19.2425L143.722 20.3491L143.726 21.4557H142.096H140.466V21.5461V21.6364L139.448 21.6502L138.431 21.664V21.7543V21.8447L137.974 21.8448C137.722 21.8448 137.447 21.8502 137.361 21.8568L137.206 21.8687V21.9585V22.0484H136.801H136.396V22.1382V22.2281L136.24 22.24C136.155 22.2465 135.972 22.2519 135.835 22.252L135.585 22.2521V22.342V22.4318L135.43 22.4437C135.344 22.4503 135.209 22.4557 135.128 22.4557L134.982 22.4558V22.5464V22.637L134.775 22.6503L134.568 22.6636V22.7542V22.8448H134.36H134.153V22.9466V23.0485H133.946H133.739V23.1504V23.2522H133.541H133.343V23.3541V23.4559H133.146H132.949L132.943 23.5532L132.938 23.6504L132.839 23.656L132.74 23.6616V23.7532V23.8449H132.636H132.533V23.9467V24.0486H132.43H132.327L132.321 24.1458L132.316 24.2431L132.124 24.2483L131.931 24.2536L131.926 24.3502L131.92 24.4468L131.823 24.4523L131.727 24.4578L131.713 24.6514L131.7 24.845H131.607H131.515V24.9468V25.0487H131.411H131.308V25.1506V25.2524H131.204H131.1V25.4459V25.6394L131.001 25.645L130.902 25.6506L130.897 25.7571L130.891 25.8636H130.798H130.705V26.0581V26.2525H130.601H130.497V26.4072C130.497 26.4922 130.492 26.6256 130.485 26.7035L130.473 26.8452H130.381H130.29V26.9998C130.29 27.0849 130.285 27.2182 130.278 27.2962L130.266 27.4379H130.174H130.083V27.8453V28.2528H129.991H129.9L129.888 28.4055C129.872 28.606 129.872 31.5849 129.888 31.9615L129.9 32.2532H129.991H130.083V32.6514V33.0496H130.186H130.29V33.3552V33.6607H130.394H130.497V33.8552V34.0497H130.589H130.682L130.695 34.2534L130.709 34.4571H130.801H130.893V34.6516V34.8461H130.997H131.1V34.947V35.0478L131.199 35.0535L131.298 35.059L131.304 35.2479L131.309 35.4368L131.407 35.4424L131.505 35.448L131.511 35.5443L131.517 35.6406L131.615 35.6461L131.713 35.6517L131.718 35.7489L131.724 35.8462H131.817H131.911V35.948V36.0499H132.014H132.118V36.1518V36.2536H132.315H132.512L132.517 36.3508L132.523 36.4481L132.631 36.4536L132.74 36.4592V36.5491V36.639L132.938 36.6522L133.136 36.6655V36.7537V36.8419L133.333 36.8551L133.531 36.8683V36.9568V37.0452L133.739 37.0584L133.946 37.0716V37.1627V37.2537H134.246H134.547L134.553 37.351L134.558 37.4482L134.865 37.4533L135.171 37.4584V37.5505V37.6427H135.366C135.473 37.6427 135.702 37.6481 135.874 37.6548L136.188 37.667V37.7567V37.8464H138.12H140.051V37.7566V37.6667L140.224 37.6547C140.319 37.6481 140.501 37.6427 140.629 37.6427H140.862V37.5501V37.4575H141.028C141.12 37.4575 141.26 37.4521 141.339 37.4455L141.484 37.4335V37.3436V37.2537H141.691H141.898V37.1519V37.05H142.105H142.313V36.9592V36.8683L142.511 36.8551L142.708 36.8419V36.7537V36.6655L142.906 36.6522L143.104 36.639V36.5482V36.4573H143.208H143.311V36.3555V36.2536H143.425H143.538V36.1625V36.0714L143.724 36.0584L143.91 36.0454L143.924 35.8541L143.937 35.6628L144.034 35.6572L144.131 35.6517L144.137 35.5545L144.143 35.4572H144.236H144.329L144.329 35.6008C144.329 35.6797 144.335 35.813 144.341 35.8971L144.354 36.0499H144.445H144.536V36.3555V36.6611H144.64H144.744V36.9574V37.2537H147.796H150.849V37.1519V37.05H150.746H150.642V36.7546V36.4593L150.543 36.4537L150.444 36.4481L150.439 35.9527L150.434 35.4572H150.342H150.251L150.236 34.8322C150.229 34.4884 150.226 30.7007 150.232 26.4151C150.237 22.1295 150.237 18.2228 150.232 17.7336L150.222 16.8441H150.13H150.039L150.039 16.5895C150.039 16.4494 150.033 16.266 150.027 16.182L150.015 16.0292H149.923H149.832V15.7329V15.4366H149.728H149.624V15.2421V15.0476H149.532H149.44L149.426 14.8439L149.413 14.6402H149.323H149.232L149.219 14.4457L149.205 14.2512H149.113H149.021V14.1494V14.0475H148.918H148.814V13.9457V13.8438H148.71H148.607V13.7419V13.6401H148.514H148.42L148.415 13.5428L148.409 13.4456L148.31 13.44L148.211 13.4344V13.3428V13.2511H148.107H148.004V13.1493V13.0474H147.9H147.796V12.9456V12.8437H147.6H147.403L147.397 12.7465L147.391 12.6492L147.283 12.6437L147.175 12.6381V12.5487V12.4592L146.977 12.4459L146.779 12.4327V12.3419V12.251H146.572H146.364V12.1492V12.0473H146.063H145.761V11.9454V11.8436H145.45H145.139V11.7537V11.6639L144.984 11.652C144.898 11.6454 144.674 11.64 144.485 11.64L144.141 11.6399V11.5494V11.459L143.321 11.4453L142.501 11.4316V11.3412V11.2509H141.587H140.673V11.3405ZM46.621 11.5473V11.6399L46.0604 11.64C45.752 11.64 45.4298 11.6454 45.3443 11.652L45.1888 11.6639V11.7537V11.8436H44.7837H44.3785V11.9454V12.0473H44.078H43.7775L43.7718 12.1445L43.7661 12.2418L43.5635 12.247L43.3609 12.2523V12.3415V12.4308L43.2054 12.4426C43.1199 12.4492 42.9842 12.4546 42.9039 12.4546L42.7579 12.4548V12.5464V12.6381L42.6495 12.6437L42.5412 12.6492L42.5355 12.7465L42.5298 12.8437H42.3329H42.136V12.9456V13.0474H41.9391H41.7423L41.7366 13.1446L41.7309 13.2419L41.6319 13.2475L41.533 13.2531V13.3447V13.4363H41.4294H41.3257V13.536V13.6356L41.1279 13.6489L40.93 13.6621V13.753V13.8438H40.8263H40.7227V13.9457V14.0475H40.6191H40.5154V14.1494V14.2512H40.4118H40.3081V14.3531V14.455H40.2045H40.1008V14.5466V14.6382L40.0019 14.6438L39.903 14.6494L39.8973 14.7467L39.8916 14.8439H39.7983H39.7051V14.9458V15.0476H39.6015H39.4978V15.1495V15.2514H39.3942H39.2905V15.4458V15.6403H39.1869H39.0832V15.7421V15.844H38.9796H38.8759V16.0375V16.231L38.777 16.2366L38.6781 16.2422L38.6724 16.3487L38.6668 16.4552H38.5758H38.4847L38.4712 16.6497L38.4578 16.8441H38.3676H38.2774L38.2639 17.0386L38.2505 17.233H38.1581H38.0656V17.4368V17.6405H37.962H37.8584V17.8442V18.048H37.7662H37.674L37.6605 18.2517L37.6469 18.4554H37.5548H37.4626V18.61C37.4626 18.6951 37.4571 18.8284 37.4504 18.9064L37.4383 19.0481H37.3468H37.2553V19.3046C37.2553 19.4456 37.2499 19.6248 37.2431 19.7027L37.231 19.8444H37.1395H37.048V20.2519V20.6593H36.9566H36.8651L36.853 20.801C36.8462 20.879 36.8408 21.1457 36.8408 21.3937V21.8447H36.7496H36.6584L36.646 22.6086C36.6299 23.5914 36.6299 25.7185 36.646 26.6847L36.6584 27.4379H36.7496H36.8408V27.8981C36.8408 28.1512 36.8462 28.4221 36.853 28.5L36.8651 28.6417H36.9566H37.048V29.0389V29.4361L37.147 29.4417L37.2459 29.4473L37.2511 29.7483L37.2563 30.0492H37.3472H37.4382L37.4503 30.202C37.4569 30.2861 37.4624 30.4236 37.4625 30.5076L37.4626 30.6604H37.5541H37.6455L37.6576 30.8132C37.6642 30.8973 37.6697 31.0264 37.6698 31.1003L37.6699 31.2346H37.7641H37.8584V31.4383V31.642H37.962H38.0656V31.8457V32.0495H38.1693H38.2729V32.243V32.4364L38.3719 32.4421L38.4708 32.4476L38.4765 32.5541L38.4821 32.6606H38.5736H38.665L38.6785 32.8551L38.692 33.0496H38.784H38.8759V33.1514V33.2533H38.9796H39.0832V33.4468V33.6403L39.1822 33.6459L39.2811 33.6515L39.2868 33.7478L39.2924 33.8441L39.3904 33.8496L39.4884 33.8552L39.4941 33.9524L39.4998 34.0497H39.5908H39.6818L39.6952 34.2432L39.7086 34.4368L39.8058 34.4423L39.903 34.4479L39.9087 34.5451L39.9144 34.6423H40.0076H40.1008V34.7442V34.8461H40.2045H40.3081V34.9479V35.0498H40.4118H40.5154V35.1516V35.2535H40.7133H40.9111V35.3554V35.4572H41.0148H41.1184V35.5591V35.661H41.2221H41.3257V35.7536V35.8462H41.4294H41.533V35.948V36.0499H41.7309H41.9287V36.1518V36.2536H42.0324H42.136V36.3442V36.4348L42.3433 36.4481L42.5506 36.4614V36.5498V36.6381L42.7485 36.6514L42.9463 36.6646V36.7555V36.8463H43.1536H43.3609V36.9481V37.05H43.5182C43.6048 37.05 43.7405 37.0554 43.8198 37.062L43.9639 37.0739V37.1638V37.2537H44.1712H44.3785V37.3436V37.4335L44.5227 37.4455C44.602 37.4521 44.7843 37.4575 44.9278 37.4575H45.1888V37.548V37.6386L45.594 37.6521L45.9991 37.6657V37.756V37.8464L46.5597 37.8465C46.8681 37.8465 47.1903 37.852 47.2758 37.8585L47.4313 37.8704V37.9602V38.0501H48.854H50.2768V37.9482V37.8464H50.9835H51.6901V37.7559V37.6655L52.1047 37.6519L52.5193 37.6383V37.5484V37.4584L52.8255 37.4533L53.1317 37.4482L53.1374 37.351L53.1431 37.2537H53.4436H53.7442V37.1638V37.0739L53.8883 37.062C53.9676 37.0554 54.1029 37.05 54.1889 37.05H54.3452L54.3509 36.9528L54.3566 36.8555L54.5592 36.8503L54.7618 36.845V36.7551V36.6651L54.969 36.6518L55.1763 36.6385V36.5479V36.4573H55.3742H55.5721V36.3555V36.2536H55.7794H55.9866V36.1518V36.0499H56.1845H56.3824V35.948V35.8462H56.5793H56.7761L56.7818 35.7489L56.7875 35.6517L56.8959 35.6461L57.0042 35.6406V35.5507V35.4608L57.2021 35.4475L57.4 35.4343V35.3439V35.2535H57.5036H57.6073V35.1516V35.0498H57.7109H57.8146V34.959V34.8681L58.0115 34.8549L58.2085 34.8418L58.2141 34.7467L58.2197 34.6516L58.3186 34.646L58.4176 34.6404V34.4469V34.2534H58.3139H58.2103V34.1515V34.0497H58.1183H58.0263L58.0128 33.8552L57.9994 33.6607H57.907H57.8146V33.5589V33.457H57.7109H57.6073V33.2533V33.0496H57.5036H57.4V32.9477V32.8458H57.3076H57.2151L57.2017 32.6523L57.1883 32.4587L57.0916 32.4532L56.9948 32.4476L56.9891 32.3504L56.9834 32.2532H56.8902H56.797V32.0597V31.8662L56.698 31.8606L56.5991 31.855L56.5934 31.7485L56.5878 31.642H56.4963H56.4048L56.3914 31.4475L56.3779 31.2531H56.2877H56.1976L56.1841 31.0595L56.1707 30.8659L56.074 30.8604L55.9772 30.8549L55.9715 30.7577L55.9658 30.6604H55.769H55.5721V30.7623V30.8641H55.4684H55.3648V30.9545V31.0449L55.1669 31.0582L54.969 31.0714V31.1623V31.2531H54.8654H54.7618V31.3549V31.4568H54.5649H54.368L54.3623 31.554L54.3566 31.6513L54.2483 31.6568L54.1399 31.6624V31.7523V31.8422L53.942 31.8554L53.7442 31.8687V31.9584V32.0482L53.5416 32.0535L53.339 32.0587L53.3333 32.156L53.3276 32.2532H53.1317H52.9358L52.9301 32.3504L52.9244 32.4476L52.7219 32.4529L52.5193 32.4582V32.5474V32.6366L52.3638 32.6485C52.2783 32.6551 52.096 32.6605 51.9587 32.6605L51.709 32.6606V32.7505V32.8404L51.5535 32.8523C51.468 32.8588 51.2857 32.8642 51.1484 32.8643L50.8987 32.8644V32.957V33.0496H49.3723H47.8459V32.957V32.8644L47.6904 32.8643C47.6049 32.8642 47.465 32.8588 47.3795 32.8523L47.224 32.8404V32.7505V32.6606H47.0667C46.9801 32.6606 46.8445 32.6553 46.7652 32.6487L46.621 32.6367V32.5477V32.4588L46.5126 32.4532L46.4043 32.4476L46.3986 32.3504L46.3929 32.2532H46.196H45.9991V32.1513V32.0495H45.8955H45.7918V31.9578V31.8662L45.6929 31.8606L45.594 31.855L45.5883 31.7578L45.5826 31.6605H45.4893H45.3961V31.5587V31.4568H45.2925H45.1888V31.3549V31.2531H45.0852H44.9815V31.1512V31.0494H44.8889H44.7963L44.7828 30.8456L44.7694 30.6419H44.6794H44.5894L44.5759 30.4474L44.5625 30.253H44.4705H44.3785V30.0492V29.8455H44.2871H44.1956L44.1834 29.7038C44.1767 29.6259 44.1712 29.4467 44.1712 29.3056V29.0491H44.0798H43.9883L43.9761 28.9074C43.9694 28.8295 43.9639 28.4711 43.9639 28.1111V27.4564H43.8697H43.7755V27.1508V26.8452H51.2002H58.6249V26.7433V26.6415H58.7191H58.8133V25.345V24.0486H58.7191H58.6249V22.7531V21.4577L58.5259 21.4521L58.427 21.4465L58.422 20.8492L58.417 20.2519H58.326H58.235L58.2227 19.9602C58.216 19.7998 58.2104 19.5747 58.2103 19.4601L58.2103 19.2518H58.1161H58.0218L58.0217 19.099C58.0217 19.015 58.0162 18.8774 58.0095 18.7934L57.9974 18.6406H57.906H57.8146V18.3443V18.048H57.7109H57.6073V17.7526V17.4572L57.5083 17.4516L57.4094 17.446L57.404 17.2469L57.3987 17.0478H57.3072H57.2157L57.2021 16.8441L57.1886 16.6404H57.0986H57.0087L56.9953 16.4459L56.9818 16.2515H56.8894H56.797V16.0477V15.844H56.6933H56.5897V15.7421V15.6403H56.4973H56.4048L56.3914 15.4467L56.378 15.2531L56.2813 15.2476L56.1845 15.2421L56.1788 15.1449L56.1731 15.0476H56.0799H55.9866V14.9458V14.8439H55.883H55.7794V14.6494V14.455H55.6757H55.5721V14.3531V14.2512H55.4684H55.3648V14.1494V14.0475H55.2611H55.1575V13.9457V13.8438H55.0538H54.9502V13.753V13.6621L54.7523 13.6489L54.5545 13.6356V13.536V13.4363H54.4508H54.3472V13.3437V13.2511H54.2435H54.1399V13.1493V13.0474H53.942H53.7442V12.9456V12.8437H53.5369H53.3296V12.7418V12.64H53.1317H52.9339V12.5494V12.4588L52.7266 12.4455L52.5193 12.4322V12.3416V12.251H52.3619C52.2754 12.251 52.1397 12.2456 52.0604 12.239L51.9163 12.2271V12.1372V12.0473H51.6053H51.2944V11.9454V11.8436H50.8892H50.4841V11.7537V11.6639L50.3286 11.652C50.2431 11.6454 49.9209 11.64 49.6125 11.64L49.0519 11.6399V11.5473V11.4547H47.8364H46.621V11.5473ZM92.2055 11.5452V11.6358L91.8004 11.6493L91.3952 11.6629V11.7532V11.8436H91.1879H90.9807V11.9344V12.0252L90.7828 12.0385L90.5849 12.0517V12.1403V12.229L90.388 12.2421L90.191 12.2553L90.1854 12.3504L90.1798 12.4455L89.9772 12.4508L89.7746 12.456V12.5573V12.6585H89.6804H89.5862V12.7511V12.8437H89.4835H89.3809L89.3751 12.9409L89.3695 13.0382L89.2705 13.0437L89.1716 13.0494V13.1502V13.2511H89.068H88.9643V13.3437V13.4363H88.8607H88.757V13.5372V13.6381L88.6581 13.6437L88.5592 13.6493L88.5535 13.7466L88.5478 13.8438H88.4545H88.3613V13.9457V14.0475H88.2576H88.154V14.1494V14.2512H88.0504H87.9467V14.4457V14.6402H87.8431H87.7394V14.742V14.8439H87.6358H87.5321V15.0384V15.2328H87.4389H87.3456L87.3399 15.3393L87.3343 15.4458L87.2375 15.4513L87.1408 15.4569L87.1274 15.6504L87.1139 15.844H87.0215H86.9291V15.9459V16.0477H86.8255H86.7218V16.2515V16.4552H86.6294H86.537L86.5235 16.6497L86.51 16.8441H86.4187H86.3274L86.322 17.0432L86.3167 17.2423L86.2177 17.2479L86.1188 17.2535V17.447V17.6405H86.0152H85.9115V17.8442V18.048H85.8079H85.7042V18.2026C85.7042 18.2876 85.6987 18.421 85.692 18.4989L85.6799 18.6406H85.5884H85.4969V18.8443V19.0481H85.4034H85.3098L85.3044 19.2472L85.2991 19.4463L85.2001 19.4518L85.1012 19.4575L85.1011 19.6C85.101 19.6784 85.0955 19.8113 85.0889 19.8954L85.0768 20.0482H84.9854H84.8939V20.15V20.2519H84.9976H85.1012V20.3445V20.4371H85.2491C85.3305 20.4371 85.4619 20.4425 85.5412 20.4491L85.6854 20.461V20.5503V20.6396L85.8974 20.6448L86.1094 20.6501L86.1151 20.7473L86.1208 20.8445H86.3176H86.5145V20.9464V21.0483H86.7218H86.9291V20.9464V20.8445H87.0233H87.1176V20.6899C87.1176 20.6049 87.123 20.4715 87.1298 20.3936L87.1419 20.2519H87.2334H87.3248V20.0482V19.8444H87.4285H87.5321V19.6407V19.437H87.6358H87.7394V19.2425V19.0481H87.8336H87.9279V18.8934C87.9279 18.8084 87.9333 18.675 87.9401 18.5971L87.9522 18.4554H88.0416H88.131L88.1446 18.2517L88.1581 18.048H88.248H88.3379L88.3514 17.8535L88.3649 17.659H88.4573H88.5497V17.5479V17.4368H88.6534H88.757V17.2423V17.0478H88.8492H88.9413L88.9549 16.8441L88.9684 16.6404H89.0596H89.1508L89.1565 16.5432L89.1622 16.4459L89.2589 16.4404L89.3557 16.4349L89.3691 16.2413L89.3825 16.0477H89.4749H89.5673V15.9459V15.844H89.671H89.7746V15.7421V15.6403H89.8783H89.9819V15.5495V15.4586L90.1789 15.4454L90.3758 15.4323L90.3814 15.3372L90.3871 15.2421L90.6933 15.237L90.9995 15.2319V15.1398V15.0476H91.1974H91.3952V15.1382V15.2288L91.6025 15.2421L91.8098 15.2554V15.4478V15.6403H91.9134H92.0171V15.7514V15.8625H92.1086H92.2001L92.2121 15.9875C92.2187 16.0563 92.2242 16.5022 92.2243 16.9784L92.2244 17.8442H92.1207H92.0171V18.2026C92.0171 18.3997 92.0116 18.6247 92.0049 18.7026L91.9927 18.8443H91.9013H91.8098V19.2425V19.6407H91.7179H91.626L91.6122 20.0389L91.5984 20.4371H91.5062H91.4141L91.414 20.6918C91.4139 20.8318 91.4084 21.0152 91.4018 21.0992L91.3897 21.252H91.2982H91.2068V21.5085C91.2068 21.6496 91.2013 21.8288 91.1946 21.9067L91.1824 22.0484H91.091H90.9995V22.4466V22.8448H90.8959H90.7922V23.243V23.6411H90.698H90.6038V23.8791C90.6038 24.0099 90.5983 24.1933 90.5915 24.2865L90.5793 24.4561H90.4879H90.3965L90.3964 24.7014C90.3963 24.8364 90.3908 25.0156 90.3842 25.0996L90.3721 25.2524H90.2806H90.1892V25.6506V26.0488H90.0855H89.9819V26.5489V27.0489H89.8783H89.7746V27.549V28.049H89.6804H89.5862V28.2961C89.5862 28.4319 89.5806 28.7445 89.5737 28.9906L89.5613 29.4381H89.4701H89.3789V31.0494V32.6606H89.4701H89.5614L89.5738 32.9692C89.5806 33.1389 89.5862 33.3639 89.5862 33.4692V33.6607H89.6804H89.7746V33.9571V34.2534H89.8783H89.9819V34.5497V34.8461H90.0855H90.1892V34.9572V35.0683H90.2816H90.374L90.3875 35.2628L90.401 35.4572H90.4911H90.5813L90.5948 35.6517L90.6083 35.8462H90.7002H90.7922V35.948V36.0499H90.8959H90.9995V36.1518V36.2536H91.1031H91.2068V36.3453V36.4369L91.3057 36.4425L91.4047 36.4481L91.4103 36.5444L91.416 36.6407L91.514 36.6462L91.6119 36.6518L91.6176 36.7473L91.6232 36.8428L91.8202 36.856L92.0171 36.8692V36.9596V37.05H92.1207H92.2244V37.1519V37.2537H92.4317H92.639V37.3436V37.4335L92.7831 37.4455C92.8624 37.4521 92.9939 37.4575 93.0752 37.4575H93.2231V37.5501V37.6427H93.5341H93.845V37.7445V37.8464H95.475H97.1051V37.7565V37.6667L97.2605 37.6548C97.3461 37.6482 97.5284 37.6428 97.6657 37.6428L97.9154 37.6427V37.5501V37.4575H98.1227H98.33V37.3556V37.2537H98.5373H98.7445V37.1629V37.0721L98.9424 37.0588L99.1403 37.0456V36.9459V36.8463H99.3372H99.534L99.5397 36.749L99.5454 36.6518L99.6444 36.6462L99.7433 36.6406V36.549V36.4573H99.8469H99.9506V36.3555V36.2536H100.148H100.346V36.1518V36.0499H100.45H100.554V35.948V35.8462H100.657H100.761V35.7443V35.6424H100.865H100.968V35.448V35.2535H101.072H101.175V35.1516V35.0498H101.269H101.362L101.368 34.9525L101.373 34.8553L101.47 34.8498L101.567 34.8443L101.58 34.6507L101.594 34.4571H101.686H101.778V34.3553V34.2534H101.881H101.984L101.99 34.0543L101.995 33.8552L102.094 33.8496L102.193 33.844V33.7431V33.6422H102.287H102.382V33.4478V33.2533H102.485H102.589V33.0496V32.8458H102.692H102.796V32.6912C102.796 32.6062 102.802 32.4728 102.808 32.3949L102.82 32.2532H102.912H103.003V32.0587V31.8643H103.107H103.211V31.6513V31.4383H103.302H103.394L103.406 31.2966C103.412 31.2187 103.418 31.0853 103.418 31.0003V30.8456H103.512H103.606L103.606 30.7021C103.607 30.6232 103.612 30.4898 103.619 30.4058L103.631 30.253H103.722H103.813L103.818 29.952L103.823 29.6511L103.922 29.6455L104.021 29.6398V29.3936C104.021 29.2581 104.026 29.0836 104.033 29.0056L104.045 28.8639H104.137H104.228V28.7621V28.6602H104.021H103.814V28.5583V28.4565H103.616H103.418V28.3546V28.2528H103.211H103.003V28.1622V28.0716L102.796 28.0583L102.589 28.045V27.9544V27.8638H102.391H102.193V28.0583V28.2528H102.099H102.005L102.005 28.3963C102.004 28.4752 101.999 28.6086 101.992 28.6926L101.98 28.8454H101.889H101.797V29C101.797 29.0851 101.792 29.2184 101.785 29.2964L101.773 29.4381H101.681H101.59V29.6418V29.8455H101.486H101.383V30.0001C101.383 30.0852 101.377 30.2185 101.371 30.2965L101.358 30.4382H101.267H101.175V30.6409V30.8437L101.077 30.8493L100.978 30.8549L100.972 31.054L100.967 31.2531H100.875H100.784L100.77 31.4568L100.757 31.6605H100.667H100.577L100.563 31.855L100.55 32.0495H100.458H100.365V32.1513V32.2532H100.262H100.158V32.4569V32.6606H100.054H99.9506V32.7625V32.8644H99.8582H99.7658L99.7523 33.0588L99.7388 33.2533H99.6374H99.536V33.3552V33.457H99.4418H99.3476V33.5474V33.6378L99.1506 33.651L98.9537 33.6642L98.948 33.7597L98.9424 33.8552L98.834 33.8608L98.7257 33.8663V33.9551V34.0439L98.3086 34.0549C98.0791 34.0609 97.7569 34.0609 97.5925 34.0549L97.2935 34.0439V33.956V33.868L97.0956 33.8548L96.8978 33.8415V33.6493V33.457H96.7941H96.6905V33.2533V33.0496H96.5869H96.4832V32.0986C96.4832 31.5755 96.4887 31.0838 96.4954 31.0058L96.5076 30.8641H96.5987H96.6899L96.6949 30.3595L96.6999 29.8548L96.7989 29.8492L96.8978 29.8436V29.4464V29.0491H97.0014H97.1051V28.6509V28.2528H97.197H97.2889L97.3027 27.8546L97.3165 27.4564H97.4087H97.5008V27.1999C97.5008 27.0588 97.5063 26.8796 97.513 26.8017L97.5252 26.66H97.6166H97.7081V26.3544V26.0488H97.8117H97.9154V25.6506V25.2524H98.0068H98.0983L98.1104 25.0996C98.117 25.0156 98.1225 24.8364 98.1226 24.7014L98.1227 24.4561H98.2169H98.3111V24.2181C98.3111 24.0873 98.3166 23.9039 98.3234 23.8107L98.3356 23.6411H98.4266H98.5177L98.5227 23.2476L98.5278 22.854L98.6268 22.8484L98.7257 22.8428V22.3437V21.8447H98.8293H98.933V21.252V20.6593H99.0366H99.1403V18.4554V16.2515H99.0366H98.933V15.844V15.4366H98.8415H98.7501L98.7379 15.2949C98.7312 15.2169 98.7257 15.0836 98.7257 14.9985V14.8439H98.633H98.5404L98.527 14.6402L98.5136 14.4365H98.4238H98.3341L98.3205 14.2327L98.307 14.029H98.2148H98.1227V13.8345V13.6401H98.019H97.9154V13.4456V13.2511H97.8117H97.7081V13.1493V13.0474H97.6045H97.5008V12.9456V12.8437H97.3972H97.2935V12.752V12.6604L97.1946 12.6548L97.0956 12.6492L97.09 12.5539L97.0844 12.4586L96.8969 12.4454L96.7093 12.4322V12.3416V12.251H96.5963H96.4832V12.1492V12.0473H96.2853H96.0875V11.9454V11.8436H95.8802H95.6729V11.7531V11.6627L95.2772 11.6491L94.8814 11.6355V11.5451V11.4547H93.5435H92.2055V11.5452ZM167.131 11.5473V11.6399L166.617 11.6399C166.335 11.6399 165.97 11.6454 165.807 11.6521L165.51 11.6642V11.7539V11.8436H165.106H164.702L164.696 11.9408L164.69 12.038L164.384 12.0431L164.078 12.0482V12.1376V12.2271L163.934 12.239C163.855 12.2456 163.719 12.251 163.632 12.251H163.475V12.3416V12.4322L163.268 12.4455L163.06 12.4588V12.5472V12.6355L162.863 12.6488L162.665 12.662V12.7529V12.8437H162.457H162.25V12.9456V13.0474H162.146H162.043V13.1382V13.2291L161.845 13.2423L161.647 13.2556V13.345V13.4345L161.539 13.44L161.43 13.4456L161.425 13.5422L161.419 13.6388L161.227 13.6441L161.035 13.6493L161.029 13.7466L161.023 13.8438H160.921H160.818V13.9457V14.0475H160.62H160.422V14.1494V14.2512H160.319H160.215V14.3439V14.4365H160.111H160.008V14.1401V13.8438H159.904H159.8V13.4456V13.0474H159.709H159.617L159.605 12.8946C159.599 12.8106 159.593 12.6772 159.593 12.5983L159.593 12.4548H159.501H159.409L159.396 12.251L159.383 12.0473H159.291H159.199L159.193 11.8482L159.188 11.6491L159.094 11.6429C159.042 11.6395 158.904 11.6424 158.787 11.6494L158.575 11.662V11.7528V11.8436H158.17H157.765V11.9454V12.0473H157.36H156.955V12.1492V12.251H156.644H156.333V12.3416V12.4321L155.928 12.4457L155.523 12.4593V12.5496V12.64L155.273 12.6401C155.136 12.6401 154.953 12.6455 154.868 12.6521L154.712 12.664V12.7538V12.8437H154.401H154.09V12.9336V13.0235L153.946 13.0354C153.867 13.042 153.685 13.0474 153.541 13.0474H153.28V13.14V13.2326H153.186H153.092V13.4363V13.6401H153.195H153.299V13.8438V14.0475H153.391H153.483L153.497 14.4457L153.51 14.8439H153.603H153.695L153.695 15.2467C153.695 15.4683 153.7 15.7808 153.707 15.9412L153.719 16.2329H153.811H153.902V26.7433V37.2537H157.256H160.611L160.611 28.4055C160.611 23.5391 160.616 19.4895 160.623 19.4066L160.635 19.2559L160.83 19.2428L161.025 19.2297V19.1389V19.0481H161.129H161.232V18.9462V18.8443H161.336H161.44V18.7425V18.6406H161.543H161.647V18.5498V18.459L161.845 18.4457L162.043 18.4325V18.3421V18.2517H162.146H162.25V18.1504V18.0492L162.453 18.044L162.655 18.0387L162.661 17.9415L162.667 17.8442H162.863H163.06V17.7424V17.6405H163.268H163.475V17.5495V17.4584L163.682 17.4452L163.89 17.432V17.3418V17.2516L164.092 17.2515C164.204 17.2515 164.428 17.246 164.592 17.2393L164.888 17.2273V17.1375V17.0478H165.407H165.925V17.1377V17.2276L166.08 17.2395C166.166 17.246 166.301 17.2514 166.382 17.2515L166.528 17.2516V17.342V17.4324L166.725 17.4455L166.922 17.4587L166.927 17.5543L166.933 17.6498L167.031 17.6553L167.129 17.6609L167.135 17.8498L167.14 18.0387L167.239 18.0443L167.338 18.0499V18.3545V18.6591H167.442H167.545V27.9564V37.2537H170.9H174.254V27.1508V17.0478H174.162H174.07L174.056 16.4459L174.042 15.844H173.95H173.858L173.858 15.6912C173.858 15.6072 173.853 15.4697 173.846 15.3856L173.834 15.2328H173.742H173.651V14.9458V14.6587H173.547H173.444V14.5476V14.4365H173.351H173.259L173.245 14.242L173.232 14.0475H173.13H173.029V13.9457V13.8438H172.935H172.841V13.7419V13.6401H172.737H172.633V13.5382V13.4363H172.53H172.426V13.3345V13.2326H172.332H172.238V13.14V13.0474H172.125H172.011V12.9456V12.8437H171.908H171.804V12.7529V12.662L171.606 12.6488L171.408 12.6355V12.5474V12.4592L171.211 12.4459L171.013 12.4327V12.3442V12.2558L170.805 12.2426L170.598 12.2294V12.1384V12.0473H170.441C170.354 12.0473 170.219 12.0419 170.139 12.0353L169.995 12.0234V11.9335V11.8436H169.684H169.373V11.7537V11.6639L169.218 11.652C169.132 11.6454 168.814 11.64 168.511 11.64L167.96 11.6399V11.5473V11.4547H167.545H167.131V11.5473ZM5.59207 11.6535L5.48371 11.6602V11.7519V11.8436H5.07856H4.67341V11.9454V12.0473H4.26825H3.8631V12.1492V12.251H3.55217H3.24123V12.3416V12.4321L2.83608 12.4457L2.43092 12.4593V12.5496V12.64H2.17937C2.04102 12.64 1.86294 12.6454 1.78364 12.6519L1.63946 12.6639V12.7538V12.8437H1.32951H1.01957L1.01387 12.9409L1.00817 13.0382L0.607731 13.0432L0.207288 13.0482V13.1404V13.2326H0.103644H0V13.3437V13.4549H0.0914523H0.182923L0.195096 13.5966C0.201805 13.6745 0.207288 13.8078 0.207288 13.8929V14.0475H0.298722H0.390154L0.402251 14.2003C0.408903 14.2843 0.414407 14.4177 0.414464 14.4966L0.414576 14.6402H0.508798H0.60302L0.603133 15.0893C0.603189 15.3363 0.608693 15.6072 0.615345 15.6912L0.627443 15.844H0.718874H0.810308V26.5489V37.2537H4.16461H7.51891V28.0981C7.51891 23.0625 7.52433 18.8795 7.53095 18.8024L7.54301 18.6623L7.73824 18.6493L7.93348 18.6362V18.5365V18.4369H8.03713H8.14077V18.3452V18.2536L8.2397 18.248L8.33864 18.2424L8.34433 18.1452L8.35004 18.048H8.5469H8.74379V17.9461V17.8442H8.94068H9.13754L9.14325 17.747L9.14894 17.6498L9.35056 17.6445L9.55218 17.6393L9.55785 17.5427L9.56352 17.446L9.7661 17.4408L9.96868 17.4355V17.3435V17.2516H10.126C10.2125 17.2516 10.3482 17.2462 10.4275 17.2396L10.5717 17.2276V17.1405V17.0535L11.2792 17.0402C11.6684 17.0328 12.2196 17.0328 12.5041 17.0401L13.0215 17.0534V17.1412V17.229L13.2288 17.2423L13.436 17.2556V17.3554V17.4553H13.5397H13.6433V17.6498V17.8442H13.736H13.8286L13.842 18.048L13.8555 18.2517H13.9473H14.0391V18.4987C14.0391 18.6346 14.0447 18.9471 14.0515 19.1932L14.0639 19.6407H14.1551H14.2463V28.4472V37.2537H17.4028H20.5592V28.1509V19.0481H20.6629H20.7665V18.9462V18.8443H20.8701H20.9738V18.7425V18.6406H21.1717H21.3695V18.5387V18.4369H21.4732H21.5768V18.3443V18.2517H21.6805H21.7841V18.1498V18.048H21.982H22.1798V17.9461V17.8442H22.3871H22.5944V17.7424V17.6405H22.7913H22.9882L22.9939 17.5433L22.9996 17.446L23.2021 17.4408L23.4047 17.4355V17.3435V17.2516L23.5602 17.2515C23.6457 17.2514 23.7856 17.246 23.8711 17.2395L24.0266 17.2276V17.1377V17.0478H25.0442H26.0618V17.1387V17.2295L26.2596 17.2427L26.4575 17.256V17.3464V17.4368H26.5612H26.6648V17.6405V17.8442H26.7684H26.8721V18.048V18.2517H26.9635H27.055L27.067 18.4045C27.0737 18.4885 27.0792 22.764 27.0793 27.9055L27.0794 37.2537H30.33H33.5807V26.9471V16.6404H33.4894H33.3981L33.3858 16.3487C33.3791 16.1883 33.3735 15.9632 33.3734 15.8486L33.3734 15.6403H33.2792H33.1849V15.344V15.0476H33.0813H32.9777V14.893C32.9777 14.808 32.9722 14.6746 32.9655 14.5967L32.9533 14.455H32.8618H32.7704V14.3439V14.2327H32.6667H32.5631V14.0383V13.8438H32.4594H32.3558V13.7419V13.6401H32.2522H32.1485V13.5475V13.4549H32.0543H31.9601V13.353V13.2511H31.8564H31.7528V13.1493V13.0474H31.6491H31.5455V12.9456V12.8437H31.3486H31.1517L31.146 12.7465L31.1403 12.6492L30.9378 12.644L30.7352 12.6387V12.5485V12.4583L30.5373 12.4451L30.3394 12.4318V12.3414V12.251H30.1322H29.9249V12.1496V12.0482L29.6187 12.0431L29.3124 12.038L29.3067 11.9408L29.301 11.8436H28.8969H28.4927V11.7539V11.6642L28.1788 11.652C27.773 11.6363 25.5199 11.6363 25.1337 11.6521L24.8369 11.6642V11.7539V11.8436H24.4223H24.0077V11.9454V12.0473H23.7062H23.4047V12.1372V12.2271L23.2605 12.239C23.1812 12.2456 23.046 12.251 22.96 12.251H22.8037L22.798 12.3483L22.7923 12.4455L22.5991 12.4508L22.406 12.4561V12.548V12.64H22.2929H22.1798V12.7418V12.8437H21.982H21.7841V12.9456V13.0474H21.5872H21.3903L21.3846 13.1446L21.3789 13.2419L21.2706 13.2474L21.1622 13.253V13.3437V13.4344L21.0633 13.44L20.9644 13.4456L20.9587 13.5411L20.9531 13.6366L20.7562 13.6498L20.5592 13.663V13.7534V13.8438H20.4556H20.3519V13.9457V14.0475H20.2483H20.1446V14.1494V14.2512H20.0514H19.9582L19.9525 14.3485L19.9468 14.4457L19.8478 14.4513L19.7489 14.4569V14.5485V14.6402H19.6453H19.5416V14.742V14.8439H19.438H19.3343V14.742V14.6402H19.2307H19.127V14.5383V14.4365H19.0346H18.9422L18.9287 14.242L18.9153 14.0475H18.8139H18.7125V13.9457V13.8438H18.6192H18.526L18.5203 13.7466L18.5146 13.6493L18.4157 13.6437L18.3167 13.6381V13.5475V13.4568L18.2178 13.4512L18.1189 13.4456L18.1132 13.3484L18.1075 13.2511H18.0048H17.9022V13.1493V13.0474H17.7043H17.5064V12.9456V12.8437H17.4028H17.2991V12.7418V12.64H17.1013H16.9034V12.5483V12.4566L16.7951 12.4511L16.6867 12.4455L16.681 12.3483L16.6753 12.251H16.5284C16.4476 12.251 16.3166 12.2456 16.2373 12.239L16.0931 12.2271V12.1372V12.0473H15.9263C15.8346 12.0473 15.6947 12.0419 15.6154 12.0353L15.4712 12.0234V11.9335V11.8436H15.1603H14.8494V11.7539V11.6642L14.5526 11.6521C14.1676 11.6364 11.9861 11.6362 11.7618 11.6519L11.5893 11.6639V11.7538V11.8436H11.1841H10.779V11.9335V12.0234L10.6348 12.0353C10.5555 12.0419 10.4156 12.0473 10.3239 12.0473H10.1571V12.1372V12.2271L10.0129 12.239C9.93364 12.2456 9.80221 12.251 9.72085 12.251H9.57294V12.3416V12.4322L9.36565 12.4455L9.15837 12.4588V12.5474V12.6359L8.95108 12.6492L8.74379 12.6625V12.7531V12.8437H8.54593H8.34806V12.9456V13.0474H8.24442H8.14077V13.1493V13.2511H8.03713H7.93348V13.3415V13.4319L7.73562 13.4452L7.53775 13.4584V13.5492V13.6401H7.43411H7.33046V13.7419V13.8438H7.22682H7.12317V13.9457V14.0475H7.01953H6.91589V13.9457V13.8438H6.82445H6.73302L6.72092 13.691C6.71427 13.607 6.70877 13.4236 6.70871 13.2836L6.7086 13.0289H6.61715H6.52568L6.5135 12.8872C6.50679 12.8093 6.50131 12.6759 6.50131 12.5909V12.4362H6.40988H6.31844L6.30635 12.2834C6.2997 12.1994 6.29419 12.066 6.29413 11.9871L6.29402 11.8436H6.1998H6.10558V11.7417V11.6399L5.903 11.6434C5.79159 11.6453 5.65165 11.6499 5.59207 11.6535ZM191.365 11.9454V12.0473H191.261H191.157V12.2408V12.4343L191.058 12.4399L190.96 12.4455L190.954 12.6446L190.949 12.8437H190.855H190.762V12.9456V13.0474H190.659H190.556L190.55 13.2465L190.545 13.4456L190.446 13.4512L190.347 13.4568V13.6503V13.8438H190.243H190.14V14.0373V14.2308L190.041 14.2364L189.942 14.242L189.936 14.3485L189.931 14.455H189.84H189.749L189.735 14.6494L189.722 14.8439H189.631H189.541L189.528 15.0384L189.514 15.2328H189.422H189.329V15.344V15.4551H189.226H189.122V15.6495V15.844H189.03H188.938L188.924 16.0477L188.911 16.2515H188.82H188.73L188.717 16.4459L188.703 16.6404H188.611H188.519V16.7423V16.8441H188.416H188.312V17.0478V17.2516H188.208H188.105V17.4451V17.6386L188.006 17.6442L187.907 17.6498L187.901 17.7563L187.895 17.8627H187.804H187.712L187.699 18.0572L187.685 18.2517H187.594H187.502V18.4461V18.6406H187.398H187.294L187.294 18.7101C187.294 18.7483 187.289 18.8358 187.282 18.9045L187.27 19.0295H187.178H187.087V19.1407V19.2518H186.983H186.88V19.4463V19.6407H186.788H186.695L186.682 19.8444L186.668 20.0482H186.576H186.484V20.15V20.2519H186.381H186.278L186.273 20.451L186.267 20.6501L186.168 20.6557L186.069 20.6613V20.8548V21.0483H185.966H185.862V21.1501V21.252H185.77H185.678L185.664 21.4557L185.651 21.6595H185.561H185.471L185.457 21.8539L185.444 22.0484H185.354H185.264L185.25 22.2428L185.237 22.4373H185.144H185.052V22.5484V22.6596H184.96H184.869L184.857 22.8037C184.85 22.883 184.85 23.0122 184.857 23.0908L184.869 23.2337H184.96H185.052V23.3448V23.4559H185.155H185.259V23.6504V23.8449H185.351H185.443L185.456 24.0393L185.47 24.2338H185.561H185.653L185.659 24.3403L185.664 24.4468L185.763 24.4524L185.862 24.458V24.6515V24.845H185.966H186.069V25.0487V25.2524H186.173H186.277V25.3543V25.4562H186.369H186.461L186.475 25.6506L186.488 25.8451H186.578H186.668L186.682 26.0488L186.695 26.2525H186.788H186.88V26.3544V26.4563H186.983H187.087V26.6507V26.8452H187.191H187.294V27.0489V27.2526H187.398H187.502V27.4462V27.6396L187.6 27.6453L187.699 27.6508L187.705 27.7481L187.711 27.8453H187.803H187.896L187.901 28.0444L187.907 28.2435L188.006 28.2491L188.105 28.2547V28.4482V28.6417H188.208H188.312V28.7435V28.8454H188.404H188.496L188.51 29.0491L188.523 29.2529H188.614H188.704L188.717 29.4473L188.731 29.6418H188.822H188.913L188.919 29.7483L188.924 29.8548L189.023 29.8604L189.122 29.866V30.0595V30.253H189.226H189.329V30.4474V30.6419H189.433H189.537V30.753V30.8641H189.629H189.722L189.735 31.0586L189.749 31.2531H189.838H189.928L189.941 31.4475L189.955 31.642H190.047H190.14V31.7531V31.8643H190.232H190.325L190.338 32.0587L190.352 32.2532H190.453H190.554V32.4476V32.6421H190.646H190.739L190.752 32.8458L190.766 33.0496H190.858H190.95V33.1514V33.2533H191.054H191.157V33.4468V33.6403L191.256 33.6459L191.355 33.6515L191.361 33.8506L191.366 34.0497H191.469H191.572V34.1515V34.2534H191.665H191.757L191.771 34.4571L191.784 34.6609H191.874H191.964L191.978 34.8553L191.991 35.0498H192.083H192.175V35.1516V35.2535H192.279H192.382V35.4572V35.661H192.486H192.59V35.8554V36.0499H192.693H192.797V36.1518V36.2536H192.89H192.984L192.989 36.4527L192.995 36.6518L193.094 36.6574L193.193 36.663V36.8565V37.05H193.296H193.4V37.1519V37.2537H197.367H201.333V37.1519V37.05H201.23H201.126V36.8565V36.663L201.027 36.6574L200.928 36.6518L200.923 36.5546L200.917 36.4573H200.826H200.735L200.721 36.2629L200.708 36.0684H200.615H200.523V35.9573V35.8462H200.419H200.316V35.6517V35.4572H200.212H200.108V35.3554V35.2535H200.016H199.924L199.911 35.059L199.898 34.8646H199.805H199.713V34.7627V34.6609H199.609H199.505V34.4571V34.2534H199.402H199.298V34.1515V34.0497H199.194H199.091V33.8562V33.6627L198.992 33.6571L198.893 33.6515L198.887 33.5543L198.882 33.457H198.791H198.7L198.686 33.2626L198.673 33.0681H198.58H198.488V32.957V32.8458H198.384H198.281V32.6514V32.4569H198.177H198.073V32.355V32.2532H197.981H197.888L197.875 32.0587L197.861 31.8643H197.77H197.678V31.7624V31.6605H197.574H197.47V31.4568V31.2531H197.367H197.263V31.1512V31.0494H197.159H197.056V30.8549V30.6604H196.952H196.848V30.5586V30.4567H196.756H196.664L196.651 30.2622L196.637 30.0678H196.545H196.453V29.9566V29.8455H196.349H196.245V29.6511V29.4566H196.142H196.038V29.3547V29.2529H195.946H195.853L195.84 29.0584L195.826 28.8639H195.734H195.642V28.7621V28.6602H195.541H195.44L195.426 28.4565L195.413 28.2528H195.32H195.228V28.1509V28.049H195.124H195.02V27.8546V27.6601H194.917H194.813V27.5582V27.4564H194.721H194.629L194.615 27.2526L194.602 27.0489H194.51H194.417V26.9471V26.8452H194.314H194.21V26.6507V26.4563H194.107H194.003V26.3544V26.2525H193.911H193.819L193.806 26.059L193.792 25.8654L193.695 25.8599L193.598 25.8543L193.592 25.7479L193.586 25.6414H193.495H193.404L193.391 25.4469L193.377 25.2524H193.285H193.193V25.1506V25.0487H193.089H192.985V24.8552V24.6617L192.886 24.6561L192.787 24.6505L192.782 24.5533L192.776 24.4561H192.685H192.594L192.58 24.2523L192.567 24.0486H192.474H192.382V23.9467V23.8449H192.279H192.175V23.6504V23.4559H192.071H191.968V23.3541V23.2522H191.876H191.784L191.77 23.0587L191.757 22.8651L191.66 22.8596L191.563 22.854V22.7522V22.6503L191.659 22.6448L191.756 22.6393L191.769 22.4457L191.783 22.2521H191.875H191.968V22.1502V22.0484H192.071H192.175V21.8549V21.6614L192.274 21.6558L192.373 21.6502L192.378 21.5437L192.384 21.4372H192.476H192.569L192.574 21.34L192.58 21.2427L192.677 21.2372L192.774 21.2317L192.788 21.0381L192.801 20.8445H192.893H192.985V20.7427V20.6408H193.087H193.188L193.202 20.4464L193.215 20.2519H193.307H193.4V20.15V20.0482H193.494H193.588V19.9463V19.8444H193.69H193.791L193.805 19.65L193.818 19.4555H193.91H194.003V19.3536V19.2518H194.107H194.21L194.21 19.1823C194.21 19.1441 194.216 19.057 194.222 18.9888L194.234 18.8647L194.321 18.8591L194.408 18.8536L194.414 18.7471L194.419 18.6406H194.522H194.625V18.5387V18.4369H194.717H194.809L194.822 18.2424L194.836 18.048H194.928H195.02V17.9461V17.8442H195.124H195.228V17.7424V17.6405H195.32H195.413L195.426 17.4469L195.439 17.2533L195.536 17.2478L195.633 17.2423L195.639 17.1451L195.644 17.0478H195.735H195.826L195.84 16.8534L195.853 16.6589H195.945H196.036L196.042 16.5524L196.047 16.4459L196.146 16.4403L196.245 16.4347V16.3338V16.2329H196.338H196.43L196.444 16.0385L196.457 15.844H196.559H196.66V15.7421V15.6403H196.752H196.844L196.857 15.4458L196.871 15.2514H196.963H197.056V15.1495V15.0476H197.159H197.263V14.9458V14.8439H197.367H197.47V14.6504V14.4569L197.569 14.4513L197.668 14.4457L197.674 14.3392L197.679 14.2327H197.772H197.864L197.87 14.1355L197.875 14.0383L197.974 14.0327L198.072 14.0271L198.077 13.8382L198.083 13.6493L198.182 13.6437L198.281 13.6381V13.5372V13.4363H198.384H198.488V13.2419V13.0474H198.591H198.695V12.9456V12.8437H198.788H198.882L198.887 12.7465L198.893 12.6492L198.992 12.6436L199.091 12.638V12.4445V12.251H199.194H199.296L199.302 12.1445L199.308 12.038L199.406 12.0325L199.505 12.0268V11.9352V11.8436H195.435H191.365V11.9454ZM48.4489 16.3441V16.4367L48.8022 16.4368C48.9966 16.4368 49.2255 16.4422 49.311 16.4488L49.4665 16.4607V16.5505V16.6404H49.6644H49.8622V16.7423V16.8441H49.9753H50.0884V16.946V17.0478H50.2862H50.4841V17.1497V17.2516H50.5765H50.6689L50.6824 17.446L50.6959 17.6405H50.7973H50.8987V17.7424V17.8442H50.9908H51.083L51.0965 18.048L51.1101 18.2517H51.2016H51.2931L51.2985 18.4508L51.3038 18.6499L51.4027 18.6555L51.5017 18.6611V19.0481V19.435L51.6006 19.4407L51.6996 19.4463L51.7044 20.6548L51.7092 21.8633L47.8413 21.8586L43.9734 21.8539V21.0483V20.2426L44.0723 20.237L44.1712 20.2314V19.7426V19.2537L44.2702 19.2481L44.3691 19.2425L44.3743 18.9508L44.3795 18.6591H44.4711H44.5628L44.5764 18.4554L44.5899 18.2517H44.6798H44.7697L44.7832 18.0572L44.7967 17.8627H44.8891H44.9815V17.7516V17.6405H45.0852H45.1888V17.5386V17.4368H45.2925H45.3961V17.3451V17.2535L45.495 17.2479L45.594 17.2423L45.5996 17.146L45.6053 17.0497L45.7033 17.0442L45.8013 17.0386L45.8069 16.9414L45.8127 16.8441H46.0095H46.2064V16.7423V16.6404H46.4137H46.621V16.5505V16.4606L46.7652 16.4487C46.8445 16.4421 47.0268 16.4367 47.1703 16.4367H47.4313V16.3441V16.2515H47.9401H48.4489V16.3441ZM117.664 16.946V17.0478H117.872H118.079V17.1382V17.2286L118.277 17.2419L118.475 17.2551V17.345V17.4349L118.583 17.4405L118.691 17.446L118.697 17.5413L118.703 17.6366L118.89 17.6498L119.078 17.663V17.7536V17.8442H119.179H119.28L119.294 18.0387L119.307 18.2332H119.399H119.49L119.496 18.3396L119.502 18.4461L119.601 18.4517L119.699 18.4573V18.6508V18.8443H119.803H119.907V19.0481V19.2518H119.998H120.09L120.102 19.3935C120.109 19.4714 120.114 19.6506 120.114 19.7917V20.0482H120.205H120.297L120.309 20.201C120.316 20.285 120.321 20.51 120.321 20.701L120.321 21.0483H120.416H120.51V24.2523V27.4564H120.416H120.321L120.321 27.9981C120.321 28.296 120.316 28.6086 120.309 28.6926L120.297 28.8454H120.205H120.114V29.1019C120.114 29.243 120.109 29.4222 120.102 29.5001L120.09 29.6418H119.998H119.907V29.8446V30.0473L119.808 30.0529L119.709 30.0585L119.704 30.2576L119.698 30.4567H119.607H119.516L119.502 30.6512L119.489 30.8456H119.396H119.304V30.9475V31.0494H119.2H119.096V31.1512V31.2531H118.993H118.889V31.3549V31.4568H118.786H118.682V31.5587V31.6605H118.485H118.288L118.282 31.7578L118.277 31.855L118.074 31.8603L117.872 31.8655V31.9547V32.0439L117.154 32.0573C116.759 32.0647 116.118 32.0647 115.731 32.0573L115.026 32.044V31.9561V31.8683L114.819 31.855L114.612 31.8417V31.7517V31.6618L114.409 31.6565L114.206 31.6513L114.201 31.554L114.195 31.4568H113.998H113.801V31.3549V31.2531H113.698H113.594V31.1623V31.0714L113.397 31.0582L113.2 31.0451L113.194 30.95L113.189 30.8549L113.09 30.8493L112.991 30.8437V30.7521V30.6604H112.89H112.789L112.777 30.5076C112.77 30.4236 112.765 27.7879 112.765 24.6505C112.765 21.5131 112.77 18.8774 112.777 18.7934L112.789 18.6406H112.89H112.991V18.5387V18.4369H113.085H113.179V18.3443V18.2517H113.283H113.387V18.1498V18.048H113.49H113.594V17.9461V17.8442H113.698H113.801V17.7534V17.6626L113.998 17.6494L114.195 17.6362L114.201 17.5411L114.206 17.446L114.409 17.4408L114.612 17.4355V17.3435V17.2516H114.715H114.819V17.1497V17.0478H115.12H115.422V16.9583C115.422 16.9091 115.427 16.8633 115.434 16.8565C115.441 16.8497 115.946 16.8441 116.556 16.8441H117.664V16.946ZM74.0961 17.1377V17.2276L74.2516 17.2395C74.3371 17.246 74.4728 17.2514 74.5531 17.2515L74.6991 17.2516V17.3422V17.4327L74.9064 17.446L75.1137 17.4594V17.5499V17.6405H75.2173H75.321V17.7424V17.8442H75.5283H75.7356V17.9461V18.048H75.8392H75.9428V18.1388V18.2296L76.1407 18.2428L76.3386 18.2561V18.3557V18.4554H76.4422H76.5459V24.6598V30.8641H76.4422H76.3386V30.9568V31.0494H76.2349H76.1313V31.1512V31.2531H76.0276H75.924V31.3549V31.4568H75.8204H75.7167V31.5476V31.6385L75.5188 31.6517L75.321 31.665V31.7533V31.8417L75.1137 31.855L74.9064 31.8683V31.9583V32.0482L74.7038 32.0535L74.5013 32.0587L74.4956 32.156L74.4898 32.2532H73.0681H71.6463V32.1633V32.0734L71.5022 32.0614C71.4229 32.0548 71.2872 32.0495 71.2006 32.0495H71.0433V31.9589V31.8683L70.836 31.855L70.6287 31.8417V31.7521V31.6625L70.5298 31.6569L70.4309 31.6513L70.4252 31.5547L70.4195 31.4581L70.2273 31.4528L70.0351 31.4475L70.0298 31.2586L70.0244 31.0698L69.9261 31.0642L69.8278 31.0586L69.8222 30.9623L69.8165 30.866L69.7185 30.8605L69.6206 30.8549L69.6149 30.7484L69.6092 30.6419H69.5178H69.4263L69.4128 30.4474L69.3993 30.253H69.3078H69.2163L69.2112 29.952L69.206 29.6511L69.107 29.6455L69.0081 29.6398V29.2426V28.8454H68.9045H68.8008V28.1416V27.4379H68.7097H68.6185L68.606 26.7017C68.5901 25.7588 68.5901 24.2081 68.606 23.4421L68.6185 22.8448H68.7094H68.8004L68.8053 22.0438L68.8102 21.2427L68.9092 21.2371L69.0081 21.2315V20.8834C69.0081 20.6919 69.0136 20.4715 69.0203 20.3936L69.0325 20.2519H69.1239H69.2154V19.9556V19.6592H69.3072H69.399L69.4124 19.4555L69.4259 19.2518H69.5179H69.6098L69.6152 19.0527L69.6206 18.8536L69.7195 18.848L69.8184 18.8424V18.6489V18.4554H69.9221H70.0257V18.3545V18.2536L70.1246 18.248L70.2236 18.2424L70.2292 18.1461L70.2349 18.0498L70.3329 18.0443L70.4309 18.0387L70.4365 17.9415L70.4423 17.8442H70.5355H70.6287V17.7424V17.6405H70.7324H70.836V17.5499V17.4594L71.0433 17.446L71.2506 17.4327V17.3422V17.2516L71.3966 17.2515C71.477 17.2514 71.6126 17.246 71.6981 17.2395L71.8536 17.2276V17.1377V17.0478H72.9748H74.0961V17.1377ZM143.519 28.6509V31.4568H143.415H143.311V31.5587V31.6605H143.217H143.123V31.7522V31.8439L143.015 31.8494L142.906 31.855L142.901 31.9505L142.895 32.046L142.698 32.0592L142.501 32.0724V32.1628V32.2532H142.398H142.294V32.355V32.4569H142.097H141.9L141.894 32.5541L141.889 32.6514L141.686 32.6566L141.484 32.6619V32.7523V32.8427L141.276 32.8559L141.069 32.8691V32.9594V33.0496H140.051H139.034V32.9576V32.8656L138.831 32.8604L138.629 32.8551L138.623 32.7596L138.617 32.6641L138.42 32.6509L138.224 32.6377V32.5473V32.4569H138.12H138.016V32.355V32.2532H137.913H137.809V32.1513V32.0495H137.716H137.622L137.617 31.9522L137.611 31.855L137.512 31.8494L137.413 31.8438V31.6513V31.4587L137.314 31.4531L137.215 31.4475L137.21 31.1466L137.205 30.8456H137.114H137.023L137.011 30.7039C136.995 30.5204 136.995 28.8088 137.011 28.6093L137.023 28.4565H137.114H137.206V28.1602V27.8638H137.31H137.413V27.6601V27.4564H137.517H137.62V27.3555V27.2546L137.719 27.249L137.818 27.2434L137.824 27.1462L137.83 27.0489H137.922H138.014L138.02 26.9517L138.026 26.8545L138.134 26.8489L138.242 26.8433V26.7534V26.6635L138.44 26.6503L138.638 26.637V26.5494V26.4617L138.794 26.4499C138.879 26.4433 139.015 26.4379 139.095 26.4379L139.241 26.4377V26.3451V26.2525H139.502C139.646 26.2525 139.828 26.2472 139.907 26.2406L140.051 26.2286V26.1387V26.0488H140.965H141.879V25.9593C141.879 25.9101 141.885 25.8642 141.892 25.8574C141.899 25.8506 142.268 25.8451 142.712 25.8451H143.519V28.6509Z" fill="#B6D7D0"/>
</svg>
