<svg width="97" height="57" viewBox="0 0 97 57" fill="none" xmlns="http://www.w3.org/2000/svg">
<path d="M80.0135 56.6533C79.2472 56.4214 78.4822 56.1845 77.7149 55.9587C75.0579 55.1773 74.3764 54.5929 70.4626 49.6033C70.4626 51.1724 70.413 52.396 70.4759 53.6116C70.5448 54.9492 70.066 55.3842 68.9552 55.3602C66.0427 55.2975 63.1257 55.2541 60.2159 55.3754C58.7697 55.4359 58.4022 54.8686 58.4071 53.212C58.456 36.2936 58.4385 19.3749 58.432 2.45623C58.4317 1.63761 58.3605 0.818616 58.3223 0C62.8548 0 67.3873 0 71.9198 0C71.9198 6.27707 71.9198 12.5545 71.9198 18.881C72.1788 18.8057 72.2989 18.8107 72.3691 18.7438C72.6602 18.4647 72.9383 18.1662 73.2174 17.8704C76.4218 14.4712 80.2317 13.5119 84.343 14.4435C91.1072 15.9758 94.4855 21.4753 96.0868 28.8759C96.3869 30.2633 96.597 31.6777 96.8485 33.0796C96.8485 34.4739 96.8485 35.8678 96.8485 37.2621C96.5957 38.8586 96.3729 40.4624 96.0848 42.0498C94.7917 49.1797 91.6025 54.2849 85.2359 55.9655C84.3589 56.1971 83.4809 56.4241 82.6035 56.6533C81.7404 56.6533 80.877 56.6533 80.0135 56.6533ZM82.3912 30.0245C81.5491 27.4957 79.7678 26.1835 77.4714 26.1657C75.236 26.1486 73.5295 27.4558 72.5712 29.82C70.9136 33.9077 71.0835 38.0331 72.7994 42.0353C73.7509 44.2543 75.4182 45.3752 77.5284 45.3425C79.6325 45.3094 81.3513 44.1783 82.181 41.9106C83.7005 37.7546 83.8045 34.2701 82.3912 30.0245Z" fill="#B6D7D0"/>
<path d="M54.4393 0C54.4044 3.09464 54.3228 6.19004 54.3568 9.28392C54.371 10.5849 54.0162 11.1019 52.8869 11.0863C49.3872 11.0384 45.8862 11.0365 42.3861 11.0875C41.2465 11.1042 40.9156 10.5754 40.9295 9.28202C40.9632 6.1889 40.8787 3.09426 40.8418 0C45.3743 0 49.9068 0 54.4393 0Z" fill="#B6D7D0"/>
<path d="M12.5456 21.2054C12.8979 20.7469 13.2511 20.2891 13.6027 19.8294C17.8558 14.2682 24.0372 12.558 29.943 15.4054C34.3764 17.5429 36.5417 21.8578 36.767 27.1298C37.1478 36.0395 37.0318 44.9778 37.1448 53.9039C37.1581 54.957 36.823 55.3764 35.9133 55.3684C32.2993 55.3353 28.684 55.314 25.0706 55.3794C23.8931 55.4007 23.7727 54.7023 23.7765 53.605C23.7986 47.143 23.7989 40.6811 23.7749 34.2191C23.7714 33.2165 23.6801 32.1964 23.5023 31.2162C22.8603 27.6769 21.4397 26.3682 18.435 26.4465C15.5834 26.5207 13.8432 28.1126 13.5804 31.5538C13.2683 35.6388 13.2964 39.7625 13.2346 43.8706C13.186 47.1005 13.1889 50.3333 13.2417 53.5632C13.2628 54.8426 12.9442 55.3855 11.778 55.3631C8.32654 55.2958 4.8731 55.3091 1.42095 55.3559C0.363579 55.3703 -0.00193481 54.8768 7.69557e-06 53.6704C0.019109 41.4434 0.019109 29.2163 0.000655196 16.9893C-0.00128731 15.7909 0.339622 15.2951 1.41285 15.3168C4.48686 15.378 7.56281 15.3772 10.6368 15.3172C11.7036 15.2963 12.093 15.7768 12.0532 16.9847C12.0082 18.3478 12.0429 19.7142 12.0429 21.0792C12.2102 21.1206 12.3779 21.1628 12.5456 21.2054Z" fill="#B6D7D0"/>
<path d="M40.9453 35.2195C40.9449 29.2 40.978 23.1798 40.9203 17.161C40.9071 15.7709 41.2156 15.2709 42.4552 15.3032C45.9064 15.393 49.3608 15.3663 52.8129 15.3154C53.8596 15.2998 54.3572 15.5492 54.3524 16.9778C54.3093 29.2069 54.3171 41.4363 54.3443 53.6654C54.3469 54.8708 54.0532 55.3746 52.9716 55.3586C49.4113 55.3057 45.8497 55.3046 42.2898 55.359C41.1991 55.3757 40.9206 54.8559 40.9281 53.6586C40.9657 47.5121 40.9456 41.366 40.9453 35.2195Z" fill="#B6D7D0"/>
</svg>
