<svg width="39" height="24" viewBox="0 0 39 24" fill="none" xmlns="http://www.w3.org/2000/svg">
<path fill-rule="evenodd" clip-rule="evenodd" d="M32.2765 12.8571L0 12.8571V11.1428H32.2513C31.1862 10.6041 30.2616 9.93553 29.4485 9.13535C27.2985 7.0197 26.0152 4.0655 24.8936 0.468104L26.2811 0C27.3862 3.54449 28.5785 6.19054 30.4509 8.03308C32.1168 9.67241 34.392 10.7421 37.8192 11.1428H39V11.2512V12.7652V12.8571H37.9632C34.4549 13.244 32.1393 14.3171 30.4503 15.9757C28.5783 17.8141 27.3862 20.4558 26.2811 24.0001L24.8936 23.532C26.0153 19.9344 27.2987 16.984 29.449 14.8724C30.2685 14.0676 31.2011 13.3966 32.2765 12.8571Z" fill="#DEB259"/>
</svg>
