<svg width="202" height="80" viewBox="0 0 202 80" fill="none" xmlns="http://www.w3.org/2000/svg">
<path d="M140.932 57.6867H143.195V60.789H147.856V57.6867H150.119V66.0263H147.789V62.457H143.129V66.0263H140.932V57.6867ZM152.816 57.6867H160.572V59.2545H155.08V60.9892H160.306V62.4903H155.08V64.4251H160.639V65.993H152.882V57.6533H152.816V57.6867ZM168.895 64.2917H164.966L164.267 66.0263H161.804L165.499 57.6867H168.262L171.957 66.0263H169.527L168.895 64.2917ZM166.964 59.488L165.666 62.7906H168.262L166.964 59.488ZM173.422 57.6867H175.686V64.3584H180.712V66.0263H173.422V57.6867ZM183.375 59.2545H179.747V57.6867H189.301V59.2545H185.672V65.993H183.409L183.375 59.2545ZM190.599 57.6867H192.796V60.789H197.39V57.6867H199.654V66.0263H197.39V62.457H192.796V66.0263H190.599V57.6867Z" fill="#B6D7D0"/>
<path d="M78.8557 40.0701C78.8557 61.8215 61.2204 79.4234 39.4278 79.4234C17.6352 79.4234 0 61.8215 0 40.0701C0 18.3187 17.6352 0.716797 39.4278 0.716797C61.2204 0.716797 78.8557 18.3856 78.8557 40.0701Z" fill="#B6D7D0"/>
<path d="M72.9813 35.9793C72.9813 35.9793 57.9933 46.7691 39.2751 46.7691C19.9856 46.7691 5.03125 35.9793 5.03125 35.9793C5.03125 18.7955 22.7749 5.74121 39.0063 5.74121C55.977 5.74121 72.9813 18.0962 72.9813 35.9793Z" fill="#A7D0C8"/>
<path d="M78.2185 45.2864C79.3959 46.3931 82.9278 47.3657 85.2824 47.3657C87.8388 47.3657 89.1843 46.326 89.1843 44.7498C89.1843 43.2407 88.007 42.3352 85.0133 41.2956C80.9095 39.8535 78.2185 37.5731 78.2185 34.0183C78.2185 29.7927 81.7505 26.6738 87.5025 26.6738C90.3617 26.6738 92.3463 27.2439 93.8263 27.9147L92.5817 32.3414C91.6062 31.8719 89.8907 31.1677 87.4352 31.1677C85.0133 31.1677 83.836 32.2744 83.836 33.5152C83.836 35.0914 85.1478 35.7957 88.4107 36.9694C92.7835 38.5456 94.8018 40.8596 94.8018 44.3139C94.8018 48.4723 91.6735 51.9266 84.8787 51.9266C82.0196 51.9266 78.6222 50.954 77.1758 49.9144C77.1758 49.9144 77.3776 49.1431 77.6467 47.5669C78.0167 46.3931 78.2185 45.2864 78.2185 45.2864ZM100.487 31.7378H94.3645V27.1098H112.125V31.7378H105.969V51.5912H100.419V31.7378H100.487ZM113.941 27.0092H128.944V31.5701H119.492V37.1707H128.305V41.6645H119.492V51.5912H113.941V27.0092ZM136.916 27.0092V41.1279C136.916 45.4205 138.598 47.5669 141.356 47.5669C144.282 47.5669 145.863 45.4876 145.863 41.1279V27.0092H151.414V40.7926C151.414 48.4053 147.613 51.9936 141.154 51.9936C134.898 51.9936 131.298 48.5394 131.298 40.7255V27.0092H136.916ZM155.046 51.5912V27.0427H161.572L166.719 36.0304C168.165 38.5792 169.645 41.698 170.755 44.4815H170.822C170.486 41.2285 170.419 37.9085 170.419 34.1859V27.0427H175.565V51.5912H169.746L164.465 42.1005C163.018 39.4847 161.337 36.2987 160.227 33.4481H160.092C160.294 36.7011 160.361 40.1554 160.361 44.1797V51.5912C160.327 51.5912 155.046 51.5912 155.046 51.5912ZM179.534 27.4452C181.553 27.1098 184.244 26.875 187.036 26.875C191.745 26.875 194.806 27.7805 197.16 29.4909C199.717 31.3689 201.331 34.3872 201.331 38.7469C201.331 43.4419 199.582 46.6949 197.295 48.7071C194.739 50.8534 192.586 51.6918 187.776 51.6918C184.849 51.6918 181.048 51.6918 179.602 51.6247V27.4452H179.534ZM185.085 47.4327C185.556 47.5669 186.329 47.5669 187.036 47.5669C192.115 47.6339 195.445 44.7834 195.445 38.9816C195.445 33.8506 192.451 31.1677 187.607 31.1677C186.43 31.1677 185.522 31.3018 185.118 31.3689V47.4327H185.085ZM122.687 63.3624V77.4141H120.131V63.3624H122.687ZM124.84 70.2709C124.84 69.0971 124.84 68.1245 124.773 67.2191H127.06L127.195 68.7282H127.262C127.666 67.9569 128.776 66.9843 130.525 66.9843C132.341 66.9843 134.124 68.1581 134.124 71.344V77.3805H131.567V71.6458C131.567 70.2038 130.996 69.0971 129.617 69.0971C128.574 69.0971 127.867 69.8684 127.598 70.6062C127.531 70.8074 127.464 71.1763 127.464 71.4446V77.4141H124.907V70.2709H124.84ZM135.806 75.033C136.378 75.3684 137.488 75.8043 138.43 75.8043C139.54 75.8043 140.111 75.3348 140.111 74.6976C140.111 73.9934 139.708 73.658 138.43 73.2556C136.411 72.5513 135.57 71.4446 135.638 70.2709C135.638 68.4599 137.084 67.0849 139.54 67.0849C140.65 67.0849 141.625 67.3532 142.231 67.7221L141.76 69.5331C141.356 69.2648 140.515 68.9629 139.607 68.9629C138.699 68.9629 138.16 69.3654 138.16 70.0026C138.16 70.6398 138.631 70.9751 139.977 71.4446C141.861 72.1489 142.668 73.0208 142.668 74.5635C142.668 76.4415 141.221 77.7494 138.497 77.7494C137.252 77.7494 136.142 77.4811 135.369 77.0452L135.806 75.033ZM153.028 74.3623C153.028 75.6031 153.095 76.5757 153.095 77.4141H150.808L150.674 75.9049H150.606C150.203 76.6763 149.16 77.7159 147.343 77.7159C145.46 77.7159 143.812 76.6092 143.812 73.2891V67.3532H146.368V72.8867C146.368 74.5635 146.94 75.6702 148.252 75.6702C149.294 75.6702 149.934 74.8989 150.203 74.2952C150.27 74.094 150.337 73.8257 150.337 73.5239V67.3532H152.894V74.3958H153.028V74.3623ZM154.979 70.5392C154.979 69.1642 154.979 68.1916 154.912 67.2861H157.132L157.199 69.2312H157.266C157.737 67.7892 158.948 67.0849 160.058 67.0849C160.327 67.0849 160.462 67.0849 160.697 67.152V69.5666C160.496 69.4995 160.294 69.4995 159.924 69.4995C158.679 69.4995 157.838 70.2709 157.636 71.4446C157.569 71.6459 157.569 71.9141 157.569 72.216V77.4811H155.013L154.979 70.5392ZM167.122 77.4141L166.988 76.3074H166.92C166.281 77.0787 165.239 77.6824 163.927 77.6824C161.841 77.6824 160.731 76.2403 160.731 74.6306C160.731 72.0818 163.018 70.7404 166.786 70.7404V70.6062C166.786 69.902 166.517 68.7953 164.7 68.7953C163.725 68.7953 162.615 69.1306 161.908 69.5666L161.438 67.8898C162.211 67.4203 163.523 66.9843 165.104 66.9843C168.367 66.9843 169.342 69.0636 169.342 71.277V74.9324C169.342 75.8379 169.41 76.7433 169.477 77.347H167.122V77.4141ZM166.752 72.4172C164.936 72.3501 163.22 72.7525 163.22 74.2952C163.22 75.2678 163.859 75.7373 164.667 75.7373C165.709 75.7373 166.483 75.033 166.685 74.3623C166.752 74.1611 166.752 73.9598 166.752 73.7922V72.4172ZM171.226 70.2709C171.226 69.0971 171.226 68.1245 171.159 67.2191H173.446L173.581 68.7282H173.648C174.052 67.9569 175.162 66.9843 176.911 66.9843C178.727 66.9843 180.51 68.1581 180.51 71.344V77.3805H177.953V71.6458C177.953 70.2038 177.382 69.0971 176.003 69.0971C174.96 69.0971 174.253 69.8684 173.984 70.6062C173.917 70.8074 173.85 71.1763 173.85 71.4446V77.4141H171.293V70.2709H171.226ZM189.794 77.1122C189.222 77.3805 188.213 77.6824 186.867 77.6824C183.672 77.6824 181.586 75.6702 181.586 72.4842C181.586 69.4325 183.672 67.0849 187.271 67.0849C188.247 67.0849 189.155 67.2861 189.76 67.5544L189.289 69.4995C188.886 69.2983 188.247 69.0971 187.338 69.0971C185.387 69.0971 184.21 70.5392 184.21 72.4172C184.21 74.4964 185.589 75.6702 187.338 75.6702C188.247 75.6702 188.852 75.469 189.357 75.2678L189.794 77.1122ZM192.518 73.0544C192.586 74.9324 194.032 75.6702 195.647 75.6702C196.824 75.6702 197.732 75.536 198.506 75.2007L198.842 77.0116C197.934 77.347 196.757 77.6488 195.31 77.6488C191.98 77.6488 190.029 75.6367 190.029 72.5178C190.029 69.6672 191.778 67.0514 195.041 67.0514C198.371 67.0514 199.414 69.7343 199.414 72.0483C199.414 72.5178 199.347 72.8867 199.347 73.155H192.552V73.0544H192.518ZM197.026 71.2434C197.026 70.2709 196.622 68.7617 194.94 68.7617C193.359 68.7617 192.653 70.2038 192.586 71.2434H197.026Z" fill="#B6D7D0"/>
<path d="M28.6737 27.1384L30.6078 37.0599C31.0079 39.5155 31.5748 42.2032 31.9083 44.9242H32.0417C32.4418 42.17 33.2088 39.4491 33.7757 37.1263L36.31 27.2047H42.2123L44.6132 36.7945C45.3135 39.5486 45.9137 42.2032 46.4139 44.9574H46.4806C46.8141 42.2032 47.3143 39.4823 47.9145 36.7281L49.982 27.1384H57.3515L50.0487 51.2289H43.0459L40.7784 42.8005C40.1448 40.4777 39.678 38.2877 39.2111 35.2681H39.1444C38.7443 38.2877 38.1774 40.5441 37.6438 42.7342L35.2429 51.2289H28.0735L20.9707 27.1384H28.6737ZM63.0204 41.6059C63.2204 44.6919 66.3216 46.1851 69.823 46.1851C73.3243 46.1851 76.4256 45.7869 78.3596 45.2892C78.3596 45.2892 78.2263 46.3179 78.0262 47.4792C77.7594 48.6406 77.4593 49.9347 77.4593 49.9347C75.6586 51.0961 72.0238 51.793 68.7226 51.793C60.5194 51.793 55.7842 47.0811 55.7842 39.5486C55.7842 33.4431 59.5523 26.6738 68.0223 26.6738C75.8587 26.6738 78.6264 31.3857 78.8265 38.3209C78.8932 39.615 78.8265 41.075 78.7598 41.6723H63.0204V41.6059ZM71.8905 36.4627C71.8905 34.6044 71.0568 31.618 67.6221 31.618C64.4542 31.618 63.1537 34.5049 62.9537 36.4627H71.8905Z" fill="#EDEDED"/>
</svg>
